<svg width="82" height="82" viewBox="0 0 82 82" fill="none" xmlns="http://www.w3.org/2000/svg">
<path d="M23.3198 62.0461L12.0776 60.3742L19.3307 62.8228L23.3168 62.0524L23.3198 62.0461Z" fill="#231F20"/>
<path d="M63.605 24.8051H56.6044L41.5127 57.3044H49.1516L45.4216 65.3352H23.1339H21.7919H9.42764L27.4788 67.8066L40.6684 80.7517L81.1146 41.0549L63.605 24.8051Z" fill="#231F20"/>
<path d="M14.4576 54.3198L32.364 52.9956L10.2938 50.1262L34.5559 48.2351L8.99666 44.99L36.8642 43.1006L10.4529 39.6304L39.1942 38.0202L13.6917 34.9853L41.6668 33.1201L17.2697 29.9831L43.7745 28.2962L20.2692 24.9806L40.3094 23.3191L23.3497 21.289L42.807 19.5287L25.7434 16.775H44.3417H67.4868L53.4424 13.8445L40.6689 1.35856L0.222443 41.055L17.7003 58.3948L26.705 56.957L14.4576 54.3198Z" fill="#BF1B2C"/>
</svg>
