<svg width="68" height="68" viewBox="0 0 68 68" fill="none" xmlns="http://www.w3.org/2000/svg">
<path d="M19.4779 51.4232L10.1946 50.0375L16.1839 52.0669L19.4755 51.4284L19.4779 51.4232Z" fill="white"/>
<path d="M52.7453 20.5571H46.9645L34.5022 47.4927H40.8101L37.73 54.1487H19.3255H18.2173H8.00732L22.9134 56.197L33.8049 66.926L67.2041 34.025L52.7453 20.5571Z" fill="white"/>
<path d="M12.1611 45.0198L26.9476 43.9224L8.72279 41.5441L28.7575 39.9768L7.65167 37.2872L30.6636 35.7213L8.85421 32.8451L32.5876 31.5106L11.5287 28.9953L34.6294 27.4494L14.4833 24.8494L36.3699 23.4512L16.9601 20.7033L33.5086 19.3262L19.5039 17.6436L35.571 16.1847L21.4805 13.9024H36.8383H55.9507L44.3533 11.4736L33.8055 1.1251L0.40625 34.0259L14.8388 48.3972L22.2745 47.2056L12.1611 45.0198Z" fill="#969696"/>
</svg>
