<svg width="314" height="258" viewBox="0 0 314 258" fill="none" xmlns="http://www.w3.org/2000/svg">
<path d="M114.786 150.941L87.9431 146.873L105.261 152.83L114.779 150.956L114.786 150.941Z" fill="white"/>
<path d="M210.973 60.3441H194.258L158.224 139.406H176.463L167.557 158.942H114.342H111.137H81.6157L124.716 164.954L156.208 196.446L252.78 99.8751L210.973 60.3441Z" fill="white"/>
<path d="M93.6257 132.145L136.38 128.924L83.6839 121.943L141.614 117.343L80.5868 109.448L147.125 104.852L84.0639 96.4097L152.688 92.4926L91.797 85.1097L158.592 80.5722L100.34 72.9407L163.625 68.8368L107.502 60.7711L155.351 56.7291L114.857 51.7905L161.314 47.5081L120.572 40.8092H164.979H220.242L186.708 33.6801L156.21 3.30539L59.637 99.8755L101.368 142.058L122.868 138.56L93.6257 132.145Z" fill="#969696"/>
<path d="M61.5539 215.041H67.7581L68.7207 212.517H62.5165L61.5539 215.041ZM70.5394 222.893H64.7417L66.4319 218.464H60.2277L58.5375 222.893H52.7397L57.2537 211.126L55.5847 209.072H75.8452L70.5394 222.893Z" fill="white"/>
<path d="M76.7655 209.072H85.0234L81.0232 219.47H87.2274L91.2277 209.072H97.026L91.7202 222.893H73.9199L78.4345 211.126L76.7655 209.072Z" fill="white"/>
<path d="M97.9673 209.072H117.307L115.981 212.517H110.29L106.311 222.893H100.513L104.493 212.517H100.62L97.9673 209.072Z" fill="white"/>
<path d="M125.179 212.517L122.505 219.47H128.709L131.383 212.517H125.179ZM119.916 211.126L118.247 209.072H138.508L133.202 222.892H115.402L119.916 211.126Z" fill="white"/>
<path d="M162.427 205.264L163.005 207.04L164.951 205.264H169.551L166.727 207.917H158.683L157.848 205.264H162.427ZM169.209 214.271L165.893 222.893H148.114L149.419 219.47H161.4L162.084 217.694H150.104L152.628 211.126L150.96 209.072H171.198L169.872 212.517H157.891L157.228 214.271H169.209Z" fill="white"/>
<path d="M172.139 209.072H180.397L178.408 214.271H181.446L185.575 211.768L186.602 209.072H192.399L190.688 213.544L186.623 216.004L188.784 218.421L187.072 222.893H181.275L182.302 220.197L180.141 217.694H177.081L175.092 222.893H169.294L173.808 211.126L172.139 209.072Z" fill="white"/>
<path d="M200.272 212.517L197.598 219.47H203.802L206.476 212.517H200.272ZM195.009 211.126L193.341 209.072H213.601L208.295 222.892H190.495L195.009 211.126Z" fill="white"/>
<path d="M218.798 219.47H229.88L228.575 222.893H211.695L216.209 211.126L214.541 209.072H222.799L218.798 219.47Z" fill="white"/>
<path d="M240.043 215.041H246.247L247.21 212.517H241.006L240.043 215.041ZM249.028 222.893H243.231L244.921 218.464H238.716L237.026 222.893H231.229L235.743 211.126L234.074 209.072H254.334L249.028 222.893Z" fill="white"/>
<path d="M19.2948 238.282H11.3662L13.1849 232.462L17.2582 228.28H18.6403L17.3672 232.462H21.1135L19.2948 238.282ZM10.2021 238.318H2.27344L4.01964 232.499L8.16541 228.317H9.54752L8.23846 232.499H11.9842L10.2021 238.318Z" fill="white"/>
<path d="M24.9321 231.772L22.6409 228.28H33.8793L26.6777 251.775H18.7856L24.9321 231.772Z" fill="white"/>
<path d="M37.4431 231.772L35.1519 228.28H46.2807L51.5911 238.79L54.8278 228.28H62.7199L55.5189 251.775H47.7358L42.426 241.263L39.1887 251.775H31.2966L37.4431 231.772Z" fill="white"/>
<path d="M84.324 251.774H60.1379L61.9201 245.955H78.214L79.123 242.937H62.8291L66.2845 231.771L63.9933 228.28H91.5251L89.7429 234.135H73.449L72.54 237.117H88.8339L84.324 251.774Z" fill="white"/>
<path d="M96.4348 234.135L92.7981 228.28H119.13L117.311 234.135H109.564L104.145 251.774H96.2893L101.672 234.135H96.4348Z" fill="white"/>
<path d="M129.821 234.135L128.658 237.808H137.095L138.259 234.135H129.821ZM147.933 228.28L143.205 243.627H138.877L140.696 251.774H132.767L130.84 243.627H126.911L124.402 251.774H116.51L122.656 231.771L120.365 228.28H147.933Z" fill="white"/>
<path d="M151.462 231.772L149.17 228.28H160.409L154.989 245.955H163.427L168.846 228.28H176.738L169.537 251.775H145.315L151.462 231.772Z" fill="white"/>
<path d="M180.305 231.772L178.014 228.28H189.252L186.56 237.118H190.67L196.308 232.863L197.69 228.28H205.582L203.254 235.881L197.726 240.063L200.672 244.173L198.344 251.775H190.452L191.834 247.192L188.925 242.937H184.742L182.05 251.775H174.158L180.305 231.772Z" fill="white"/>
<path d="M210.491 234.135L206.855 228.28H233.186L231.368 234.135H223.621L218.202 251.774H210.346L215.729 234.135H210.491Z" fill="white"/>
<path d="M240.239 245.955H248.677L252.314 234.136H243.876L240.239 245.955ZM234.42 228.28H261.988L254.787 251.775H230.565L236.711 231.772L234.42 228.28Z" fill="white"/>
<path d="M272.718 234.135L271.555 237.808H279.992L281.156 234.135H272.718ZM290.831 228.28L286.102 243.627H281.774L283.593 251.774H275.665L273.737 243.627H269.809L267.299 251.774H259.407L265.553 231.771L263.262 228.28H290.831Z" fill="white"/>
<path d="M302.213 228.28H310.142L308.36 234.099L304.25 238.281H302.868L304.177 234.099H300.431L302.213 228.28ZM293.084 228.316H301.05L299.231 234.135L295.121 238.318H293.775L295.048 234.135H291.302L293.084 228.316Z" fill="white"/>
</svg>
