<svg width="314" height="258" viewBox="0 0 314 258" fill="none" xmlns="http://www.w3.org/2000/svg">
<path d="M114.785 150.941L87.9429 146.873L105.261 152.83L114.778 150.956L114.785 150.941Z" fill="#231F20"/>
<path d="M210.973 60.3442H194.258L158.224 139.406H176.463L167.557 158.942H114.342H111.137H81.6157L124.716 164.954L156.208 196.446L252.78 99.8753L210.973 60.3442Z" fill="#231F20"/>
<path d="M93.6255 132.145L136.38 128.924L83.6837 121.943L141.613 117.343L80.5866 109.448L147.125 104.852L84.0637 96.4098L152.688 92.4927L91.7968 85.1098L158.592 80.5723L100.34 72.9408L163.624 68.8369L107.502 60.7712L155.351 56.7292L114.857 51.7906L161.314 47.5082L120.572 40.8093H164.979H220.241L186.708 33.6803L156.209 3.30551L59.6367 99.8756L101.368 142.058L122.868 138.561L93.6255 132.145Z" fill="#BF1B2C"/>
<path d="M61.5539 215.041H67.7581L68.7207 212.517H62.5165L61.5539 215.041ZM70.5394 222.892H64.7417L66.4319 218.464H60.2277L58.5375 222.892H52.7397L57.2537 211.126L55.5847 209.072H75.8452L70.5394 222.892Z" fill="#231F20"/>
<path d="M76.7655 209.072H85.0234L81.0232 219.47H87.2274L91.2277 209.072H97.026L91.7202 222.893H73.9199L78.4345 211.126L76.7655 209.072Z" fill="#231F20"/>
<path d="M97.9673 209.072H117.307L115.981 212.517H110.29L106.311 222.893H100.513L104.493 212.517H100.62L97.9673 209.072Z" fill="#231F20"/>
<path d="M125.179 212.517L122.505 219.47H128.709L131.383 212.517H125.179ZM119.916 211.126L118.247 209.072H138.508L133.202 222.892H115.402L119.916 211.126Z" fill="#231F20"/>
<path d="M162.426 205.264L163.004 207.04L164.951 205.264H169.551L166.727 207.917H158.682L157.848 205.264H162.426ZM169.209 214.271L165.892 222.893H148.114L149.419 219.47H161.399L162.084 217.694H150.103L152.628 211.126L150.959 209.072H171.198L169.871 212.517H157.891L157.228 214.271H169.209Z" fill="#231F20"/>
<path d="M172.139 209.072H180.397L178.408 214.271H181.446L185.575 211.768L186.602 209.072H192.399L190.688 213.544L186.623 216.004L188.784 218.421L187.072 222.893H181.275L182.302 220.197L180.141 217.694H177.081L175.092 222.893H169.294L173.808 211.126L172.139 209.072Z" fill="#231F20"/>
<path d="M200.272 212.517L197.598 219.47H203.802L206.476 212.517H200.272ZM195.009 211.126L193.341 209.072H213.601L208.295 222.892H190.495L195.009 211.126Z" fill="#231F20"/>
<path d="M218.798 219.47H229.88L228.575 222.893H211.695L216.209 211.126L214.541 209.072H222.799L218.798 219.47Z" fill="#231F20"/>
<path d="M240.043 215.041H246.247L247.21 212.517H241.006L240.043 215.041ZM249.029 222.892H243.231L244.921 218.464H238.716L237.026 222.892H231.229L235.743 211.126L234.074 209.072H254.334L249.029 222.892Z" fill="#231F20"/>
<path d="M19.2948 238.282H11.3662L13.1849 232.462L17.2582 228.28H18.6403L17.3672 232.462H21.1135L19.2948 238.282ZM10.2021 238.318H2.27344L4.01964 232.499L8.16541 228.316H9.54752L8.23846 232.499H11.9842L10.2021 238.318Z" fill="#231F20"/>
<path d="M24.9321 231.772L22.6409 228.28H33.8793L26.6777 251.775H18.7856L24.9321 231.772Z" fill="#231F20"/>
<path d="M37.4433 231.772L35.1522 228.28H46.2809L51.5914 238.79L54.8281 228.28H62.7201L55.5191 251.775H47.7361L42.4262 241.263L39.1889 251.775H31.2969L37.4433 231.772Z" fill="#231F20"/>
<path d="M84.3242 251.774H60.1382L61.9203 245.955H78.2142L79.1233 242.937H62.8294L66.2847 231.771L63.9935 228.28H91.5253L89.7432 234.135H73.4493L72.5402 237.117H88.8341L84.3242 251.774Z" fill="#231F20"/>
<path d="M96.4346 234.135L92.7979 228.28H119.129L117.311 234.135H109.564L104.145 251.774H96.2891L101.672 234.135H96.4346Z" fill="#231F20"/>
<path d="M129.821 234.135L128.657 237.808H137.095L138.258 234.135H129.821ZM147.933 228.28L143.205 243.627H138.877L140.696 251.774H132.767L130.839 243.627H126.911L124.402 251.774H116.509L122.656 231.771L120.365 228.28H147.933Z" fill="#231F20"/>
<path d="M151.462 231.772L149.171 228.28H160.409L154.99 245.955H163.427L168.847 228.28H176.739L169.538 251.775H145.315L151.462 231.772Z" fill="#231F20"/>
<path d="M180.305 231.772L178.013 228.28H189.252L186.56 237.118H190.67L196.307 232.863L197.689 228.28H205.581L203.254 235.881L197.726 240.063L200.672 244.173L198.344 251.775H190.452L191.834 247.192L188.924 242.937H184.742L182.05 251.775H174.158L180.305 231.772Z" fill="#231F20"/>
<path d="M210.491 234.135L206.854 228.28H233.186L231.367 234.135H223.621L218.201 251.774H210.346L215.729 234.135H210.491Z" fill="#231F20"/>
<path d="M240.239 245.955H248.677L252.314 234.136H243.876L240.239 245.955ZM234.42 228.28H261.988L254.787 251.775H230.565L236.711 231.772L234.42 228.28Z" fill="#231F20"/>
<path d="M272.718 234.135L271.555 237.808H279.992L281.156 234.135H272.718ZM290.831 228.28L286.102 243.627H281.774L283.593 251.774H275.665L273.737 243.627H269.809L267.299 251.774H259.407L265.553 231.771L263.262 228.28H290.831Z" fill="#231F20"/>
<path d="M302.213 228.28H310.142L308.36 234.099L304.25 238.281H302.868L304.177 234.099H300.431L302.213 228.28ZM293.084 228.316H301.05L299.231 234.135L295.121 238.318H293.775L295.048 234.135H291.302L293.084 228.316Z" fill="#231F20"/>
</svg>
