<svg width="57" height="56" viewBox="0 0 57 56" fill="none" xmlns="http://www.w3.org/2000/svg">
<path d="M53.1976 34.0907H50.5598V24.5242C50.5598 11.5764 39.9103 1.04285 26.82 1.04285C13.7297 1.04285 3.08016 11.5764 3.08016 24.5242V35.9901C2.05935 36.3501 1.32166 37.3068 1.32166 38.4391V52.354C1.32166 53.7925 2.50513 54.963 3.95942 54.963H16.269C17.7232 54.963 18.9067 53.7925 18.9067 52.354V38.4391C18.9067 37.3068 18.169 36.3501 17.1482 35.9901V13.2184H36.4918V34.0907H33.854C32.3997 34.0907 31.2163 35.2613 31.2163 36.6998V41.6413C31.2163 42.6858 31.8441 43.6268 32.8148 44.039L37.371 45.9697V54.963H49.6806V45.9697L54.2378 44.0381C55.2076 43.6268 55.8354 42.6858 55.8354 41.6413V36.6998C55.8354 35.2613 54.6519 34.0907 53.1976 34.0907ZM48.8013 24.5242V39.3088H38.2503V12.3487C38.2503 9.18654 36.927 6.32703 34.8045 4.27284C42.9877 7.44109 48.8013 15.3213 48.8013 24.5242ZM26.82 2.78221C31.8564 2.78221 36.0012 6.61054 36.447 11.479H17.1931C17.6388 6.61054 21.7836 2.78221 26.82 2.78221ZM18.8355 4.27284C16.713 6.32703 15.3897 9.18654 15.3897 12.3487V35.8301H4.83867V24.5242C4.83867 15.3213 10.6523 7.44109 18.8355 4.27284ZM13.6312 53.2237H6.59718V51.4843H13.6312V53.2237ZM17.1482 52.354C17.1482 52.8341 16.7543 53.2237 16.269 53.2237H15.3897V49.745H4.83867V53.2237H3.95942C3.47407 53.2237 3.08016 52.8341 3.08016 52.354V38.4391C3.08016 37.959 3.47407 37.5694 3.95942 37.5694H16.269C16.7543 37.5694 17.1482 37.959 17.1482 38.4391V52.354ZM54.0769 41.6413C54.0769 41.9892 53.8676 42.3031 53.5449 42.4405L47.9221 44.8234V53.2237H39.1296V44.8234L33.5076 42.4405C33.184 42.3022 32.9748 41.9892 32.9748 41.6413V36.6998C32.9748 36.2197 33.3687 35.8301 33.854 35.8301H36.4918V39.3088H34.7333V41.0482H52.3184V39.3088H50.5598V35.8301H53.1976C53.683 35.8301 54.0769 36.2197 54.0769 36.6998V41.6413Z" fill="#DA291C"/>
<path d="M8.35567 24.5242C8.35567 19.8897 10.1203 15.4673 13.3243 12.073L12.0397 10.8859C8.52977 14.6037 6.59717 19.447 6.59717 24.5242V34.0907H8.35567V24.5242Z" fill="#DA291C"/>
<path d="M45.2844 32.3513H47.0429V24.5242C47.0429 21.0098 46.1047 17.5502 44.3286 14.5211L42.8075 15.3943C44.4271 18.159 45.2844 21.3159 45.2844 24.5242V32.3513Z" fill="#DA291C"/>
<path d="M47.0428 34.0907H45.2843V35.8292H47.0428V34.0907Z" fill="#DA291C"/>
<path d="M40.8881 51.4843H46.1636V44.5269H40.8881V51.4843ZM42.6466 46.2662H44.4051V49.7449H42.6466V46.2662Z" fill="#DA291C"/>
<path d="M4.83862 44.5269H15.3897V39.3088H4.83862V44.5269ZM6.59713 41.0482H13.6312V42.7876H6.59713V41.0482Z" fill="#DA291C"/>
</svg>
