<svg width="57" height="57" viewBox="0 0 57 57" fill="none" xmlns="http://www.w3.org/2000/svg">
<path d="M18.4271 24.2355H12.9531C12.4883 24.2355 12.112 24.6076 12.112 25.0674V30.4818C12.112 30.941 12.4883 31.3138 12.9531 31.3138H18.4271C18.8919 31.3138 19.2682 30.941 19.2682 30.4818V25.0674C19.2682 24.6082 18.8919 24.2355 18.4271 24.2355ZM17.586 29.6498H13.7942V25.8994H17.586V29.6498Z" fill="#DA291C"/>
<path d="M31.1941 24.2355H25.7201C25.2552 24.2355 24.879 24.6076 24.879 25.0674V30.4818C24.879 30.941 25.2552 31.3138 25.7201 31.3138H31.1941C31.6583 31.3138 32.0352 30.941 32.0352 30.4818V25.0674C32.0352 24.6082 31.6583 24.2355 31.1941 24.2355ZM30.3529 29.6498H26.5612V25.8994H30.3529V29.6498Z" fill="#DA291C"/>
<path d="M43.5674 24.2355H38.0934C37.6291 24.2355 37.2523 24.6076 37.2523 25.0674V30.4818C37.2523 30.941 37.6291 31.3138 38.0934 31.3138H43.5674C44.0317 31.3138 44.4085 30.941 44.4085 30.4818V25.0674C44.4085 24.6082 44.0317 24.2355 43.5674 24.2355ZM42.7263 29.6498H38.9345V25.8994H42.7263V29.6498Z" fill="#DA291C"/>
<path d="M18.4271 36.5684H12.9531C12.4883 36.5684 12.112 36.9411 12.112 37.4003V42.8147C12.112 43.2739 12.4883 43.6466 12.9531 43.6466H18.4271C18.8919 43.6466 19.2682 43.2739 19.2682 42.8147V37.4003C19.2682 36.9411 18.8919 36.5684 18.4271 36.5684ZM17.586 41.9827H13.7942V38.2323H17.586V41.9827Z" fill="#DA291C"/>
<path d="M31.1941 36.5684H25.7201C25.2552 36.5684 24.879 36.9411 24.879 37.4003V42.8147C24.879 43.2739 25.2552 43.6466 25.7201 43.6466H31.1941C31.6583 43.6466 32.0352 43.2739 32.0352 42.8147V37.4003C32.0352 36.9411 31.6583 36.5684 31.1941 36.5684ZM30.3529 41.9827H26.5612V38.2323H30.3529V41.9827Z" fill="#DA291C"/>
<path d="M43.5674 36.5684H38.0934C37.6291 36.5684 37.2523 36.9411 37.2523 37.4003V42.8147C37.2523 43.2739 37.6291 43.6466 38.0934 43.6466H43.5674C44.0317 43.6466 44.4085 43.2739 44.4085 42.8147V37.4003C44.4085 36.9411 44.0317 36.5684 43.5674 36.5684ZM42.7263 41.9827H38.9345V38.2323H42.7263V41.9827Z" fill="#DA291C"/>
<path d="M50.2291 8.12491H44.6738C44.6665 8.12491 44.6603 8.12657 44.653 8.12713V7.01896C44.653 5.20641 43.1626 3.73218 41.3301 3.73218C39.4976 3.73218 38.0071 5.20696 38.0071 7.01896V8.12491H31.7475V7.01896C31.7475 5.20641 30.2571 3.73218 28.4246 3.73218C26.5921 3.73218 25.1016 5.20696 25.1016 7.01896V8.12491H18.8415V7.01896C18.8415 5.20641 17.351 3.73218 15.5185 3.73218C13.686 3.73218 12.1956 5.20696 12.1956 7.01896V8.12546C12.1927 8.12546 12.1899 8.12491 12.1871 8.12491H6.63298C6.16813 8.12491 5.79187 8.49707 5.79187 8.95687V52.0777C5.79187 52.537 6.16813 52.9097 6.63298 52.9097H50.2291C50.6934 52.9097 51.0702 52.537 51.0702 52.0777V8.95687C51.0702 8.49707 50.6934 8.12491 50.2291 8.12491ZM39.6893 7.01896C39.6893 6.12378 40.425 5.39609 41.3301 5.39609C42.2351 5.39609 42.9708 6.12378 42.9708 7.01896V11.6097C42.9708 12.5043 42.2351 13.2326 41.3301 13.2326C40.425 13.2326 39.6893 12.5049 39.6893 11.6097V7.01896ZM28.4246 5.39609C29.329 5.39609 30.0653 6.12378 30.0653 7.01896V11.6097C30.0653 12.5043 29.3296 13.2326 28.4246 13.2326C27.5195 13.2326 26.7838 12.5049 26.7838 11.6097V9.03452C26.7861 9.00845 26.7917 8.98349 26.7917 8.95631C26.7917 8.92913 26.7861 8.90418 26.7838 8.87811V7.01896C26.7838 6.12378 27.5195 5.39609 28.4246 5.39609ZM13.8778 7.01896C13.8778 6.12378 14.6135 5.39609 15.5185 5.39609C16.423 5.39609 17.1592 6.12378 17.1592 7.01896V11.6097C17.1592 12.5043 16.4236 13.2326 15.5185 13.2326C14.6135 13.2326 13.8778 12.5049 13.8778 11.6097V7.01896ZM49.3879 51.2458H7.4741V9.78882H12.1871C12.1899 9.78882 12.1927 9.78827 12.1956 9.78827V11.6103C12.1956 13.4228 13.6866 14.897 15.5185 14.897C17.3505 14.897 18.8415 13.4228 18.8415 11.6103V9.78938H25.1016V11.6103C25.1016 13.4228 26.5926 14.897 28.4246 14.897C30.2565 14.897 31.7475 13.4228 31.7475 11.6103V9.78938H38.0071V11.6103C38.0071 13.4228 39.4976 14.897 41.3301 14.897C43.1626 14.897 44.653 13.4228 44.653 11.6103V9.7866C44.6603 9.7866 44.6665 9.78882 44.6738 9.78882H49.3879V51.2458Z" fill="#DA291C"/>
</svg>
