<svg width="40" height="40" viewBox="0 0 40 40" fill="none" xmlns="http://www.w3.org/2000/svg">
<path d="M8.71788 30.0009V32.5009C8.71788 32.737 8.63801 32.9349 8.47829 33.0946C8.31857 33.2543 8.12065 33.3342 7.88454 33.3342H7.49996C7.26385 33.3342 7.06593 33.2543 6.90621 33.0946C6.74649 32.9349 6.66663 32.737 6.66663 32.5009V20.2571L9.97413 10.8342C10.0555 10.5692 10.212 10.364 10.4437 10.2188C10.6757 10.0735 10.9337 10.0009 11.2179 10.0009H28.9104C29.1626 10.0009 29.3916 10.0772 29.5975 10.23C29.8033 10.3828 29.9461 10.5842 30.0258 10.8342L33.3333 20.2571V32.5009C33.3333 32.737 33.2534 32.9349 33.0937 33.0946C32.934 33.2543 32.7361 33.3342 32.5 33.3342H32.1154C31.8793 33.3342 31.6813 33.2543 31.5216 33.0946C31.3619 32.9349 31.282 32.737 31.282 32.5009V30.0009H8.71788ZM9.02579 18.5904H30.9741L28.5191 11.6675H11.4808L9.02579 18.5904ZM12.3791 26.1546C12.8977 26.1546 13.3359 25.9732 13.6937 25.6104C14.0518 25.2474 14.2308 24.8067 14.2308 24.2884C14.2308 23.7697 14.0493 23.3315 13.6862 22.9738C13.3234 22.6157 12.8827 22.4367 12.3641 22.4367C11.8458 22.4367 11.4076 22.6182 11.0495 22.9813C10.6918 23.344 10.5129 23.7847 10.5129 24.3034C10.5129 24.8217 10.6943 25.2599 11.057 25.6179C11.4201 25.9757 11.8608 26.1546 12.3791 26.1546ZM27.6358 26.1546C28.1541 26.1546 28.5923 25.9732 28.9504 25.6104C29.3082 25.2474 29.487 24.8067 29.487 24.2884C29.487 23.7697 29.3057 23.3315 28.9429 22.9738C28.5798 22.6157 28.1391 22.4367 27.6208 22.4367C27.1022 22.4367 26.664 22.6182 26.3062 22.9813C25.9482 23.344 25.7691 23.7847 25.7691 24.3034C25.7691 24.8217 25.9507 25.2599 26.3137 25.6179C26.6765 25.9757 27.1172 26.1546 27.6358 26.1546ZM8.33329 28.3342H31.6666V20.2571H8.33329V28.3342Z" fill="#231F20"/>
</svg>
