<svg width="57" height="57" viewBox="0 0 57 57" fill="none" xmlns="http://www.w3.org/2000/svg">
<path d="M53.4454 24.3148H52.2567L51.2016 21.5318H52.4747C53.221 21.5318 53.9366 21.2386 54.4643 20.7167C54.9919 20.1948 55.2884 19.487 55.2884 18.7489C55.2884 18.0108 54.9919 17.3029 54.4643 16.781C53.9366 16.2591 53.221 15.9659 52.4747 15.9659H49.0914L46.1019 8.06918C46.0516 7.93601 45.9613 7.82129 45.8431 7.74043C45.7249 7.65958 45.5844 7.61649 45.4407 7.61695H11.6774C11.5337 7.61649 11.3932 7.65958 11.275 7.74043C11.1568 7.82129 11.0665 7.93601 11.0162 8.06918L8.02672 15.9659H4.64336C3.89714 15.9659 3.18149 16.2591 2.65383 16.781C2.12618 17.3029 1.82975 18.0108 1.82975 18.7489C1.82975 19.487 2.12618 20.1948 2.65383 20.7167C3.18149 21.2386 3.89714 21.5318 4.64336 21.5318H5.91652L4.86141 24.3148H3.67266C3.33827 24.3148 3.00716 24.38 2.69823 24.5065C2.38929 24.6331 2.10859 24.8186 1.87214 25.0525C1.39461 25.5248 1.12634 26.1654 1.12634 26.8334V41.7084C1.12634 41.893 1.20045 42.0699 1.33236 42.2004C1.46428 42.3309 1.64319 42.4042 1.82975 42.4042V46.8709C1.82975 47.5315 2.09505 48.165 2.5673 48.6321C3.03955 49.0992 3.68006 49.3616 4.34793 49.3616H10.566C11.2339 49.3616 11.8744 49.0992 12.3466 48.6321C12.8189 48.165 13.0842 47.5315 13.0842 46.8709V42.4042H44.0339V46.8709C44.0339 47.5315 44.2992 48.165 44.7715 48.6321C45.2437 49.0992 45.8842 49.3616 46.5521 49.3616H52.7702C53.438 49.3616 54.0785 49.0992 54.5508 48.6321C55.023 48.165 55.2884 47.5315 55.2884 46.8709V42.4042C55.4749 42.4042 55.6538 42.3309 55.7857 42.2004C55.9177 42.0699 55.9918 41.893 55.9918 41.7084V26.8334C55.9918 26.1654 55.7235 25.5248 55.246 25.0525C54.7684 24.5802 54.1208 24.3148 53.4454 24.3148ZM52.4747 17.3574C52.8479 17.3574 53.2057 17.504 53.4695 17.7649C53.7333 18.0259 53.8816 18.3798 53.8816 18.7489C53.8816 19.1179 53.7333 19.4718 53.4695 19.7328C53.2057 19.9938 52.8479 20.1404 52.4747 20.1404H50.674L49.6189 17.3574H52.4747ZM12.1627 9.00844H44.9554L50.7584 24.3148H6.35966L12.1627 9.00844ZM4.64336 20.1404C4.27025 20.1404 3.91242 19.9938 3.6486 19.7328C3.38477 19.4718 3.23655 19.1179 3.23655 18.7489C3.23655 18.3798 3.38477 18.0259 3.6486 17.7649C3.91242 17.504 4.27025 17.3574 4.64336 17.3574H7.49917L6.44407 20.1404H4.64336ZM2.53315 31.2723H7.72426C7.83992 31.2723 7.95085 31.3177 8.03264 31.3986C8.11442 31.4795 8.16037 31.5892 8.16037 31.7036V33.6239C8.16037 33.7383 8.11442 33.848 8.03264 33.9289C7.95085 34.0098 7.83992 34.0552 7.72426 34.0552H2.53315V31.2723ZM11.6774 46.8709C11.6774 47.1624 11.5603 47.442 11.3519 47.6482C11.1434 47.8543 10.8608 47.9701 10.566 47.9701H4.34793C4.05317 47.9701 3.77049 47.8543 3.56207 47.6482C3.35364 47.442 3.23655 47.1624 3.23655 46.8709V42.4042H11.6774V46.8709ZM38.4067 41.0127H18.7114V35.4467H38.4067V41.0127ZM53.8816 46.8709C53.8816 47.1624 53.7645 47.442 53.556 47.6482C53.3476 47.8543 53.0649 47.9701 52.7702 47.9701H46.5521C46.2573 47.9701 45.9747 47.8543 45.7662 47.6482C45.5578 47.442 45.4407 47.1624 45.4407 46.8709V42.4042H53.8816V46.8709ZM54.585 34.0552H49.3938C49.2782 34.0552 49.1673 34.0098 49.0855 33.9289C49.0037 33.848 48.9577 33.7383 48.9577 33.6239V31.7036C48.9577 31.5892 49.0037 31.4795 49.0855 31.3986C49.1673 31.3177 49.2782 31.2723 49.3938 31.2723H54.585V34.0552ZM54.585 29.8808H49.3938C48.9056 29.8826 48.438 30.0753 48.0928 30.4167C47.7475 30.7582 47.5528 31.2207 47.5509 31.7036V33.6239C47.5528 34.1068 47.7475 34.5694 48.0928 34.9108C48.438 35.2523 48.9056 35.4449 49.3938 35.4467H54.585V41.0127H39.8135V34.751C39.8135 34.5665 39.7394 34.3895 39.6075 34.259C39.4756 34.1285 39.2966 34.0552 39.1101 34.0552H18.008C17.8215 34.0552 17.6425 34.1285 17.5106 34.259C17.3787 34.3895 17.3046 34.5665 17.3046 34.751V41.0127H2.53315V35.4467H7.72426C8.21246 35.4449 8.68014 35.2523 9.02535 34.9108C9.37057 34.5694 9.56532 34.1068 9.56718 33.6239V31.7036C9.56532 31.2207 9.37057 30.7582 9.02535 30.4167C8.68014 30.0753 8.21246 29.8826 7.72426 29.8808H2.53315V26.8334C2.53499 26.5351 2.65564 26.2494 2.86894 26.0385C3.08224 25.8275 3.37101 25.7081 3.67266 25.7063H53.4454C53.7471 25.7081 54.0359 25.8275 54.2492 26.0385C54.4625 26.2494 54.5831 26.5351 54.585 26.8334V29.8808Z" fill="#DA291C"/>
</svg>
