<svg width="57" height="56" viewBox="0 0 57 56" fill="none" xmlns="http://www.w3.org/2000/svg">
<path d="M2.9608 15.7727C2.47545 15.7727 2.08154 15.3831 2.08154 14.9031C2.08154 14.423 2.47545 14.0334 2.9608 14.0334C28.2552 14.0334 43.5225 14.0334 47.9504 7.4638C48.1667 7.14376 48.5677 7.00113 48.937 7.11419C49.3062 7.22377 49.5612 7.56121 49.5612 7.94561V12.294C49.5612 12.7741 49.1673 13.1637 48.682 13.1637C48.1966 13.1637 47.8027 12.7741 47.8027 12.294V10.252C41.5442 15.7727 26.4931 15.7727 2.9608 15.7727Z" fill="#DA291C"/>
<path d="M24.9052 19.3524C21.7751 19.3524 18.4233 19.328 14.8589 19.3054C11.0728 19.2793 7.09505 19.2515 2.9608 19.2515C2.47545 19.2515 2.08154 18.8619 2.08154 18.3818C2.08154 17.9017 2.47545 17.5121 2.9608 17.5121C7.10032 17.5121 11.0816 17.5399 14.8694 17.5643C33.4955 17.6843 48.2054 17.7904 51.5606 14.303C51.8104 14.0456 52.192 13.9638 52.5243 14.096C52.8584 14.2265 53.0782 14.5482 53.0782 14.9031V18.3818C53.0782 18.8619 52.6843 19.2515 52.199 19.2515C51.7136 19.2515 51.3197 18.8619 51.3197 18.3818V16.6285C47.0853 18.9558 37.9357 19.3524 24.9052 19.3524Z" fill="#DA291C"/>
<path d="M30.7926 43.6442C26.3858 43.6442 22.8002 40.0977 22.8002 35.7371C22.8002 31.3765 26.3858 27.83 30.7926 27.83C32.0746 27.83 33.3495 28.1378 34.4785 28.7188C34.9093 28.9397 35.0764 29.4667 34.8513 29.8911C34.628 30.3155 34.0951 30.4807 33.666 30.2616C32.7745 29.8007 31.8073 29.5693 30.7926 29.5693C27.3548 29.5693 24.5587 32.3366 24.5587 35.7371C24.5587 39.1375 27.3548 41.9049 30.7926 41.9049C32.2206 41.9049 33.5641 41.4387 34.6772 40.5621C35.057 40.2629 35.611 40.3238 35.9134 40.6995C36.2159 41.0752 36.1543 41.6214 35.7745 41.9205C34.3677 43.0337 32.5986 43.6442 30.7926 43.6442Z" fill="#DA291C"/>
<path d="M31.9762 38.3836H22.3044C21.819 38.3836 21.4251 37.9941 21.4251 37.5143C21.4251 37.0345 21.819 36.645 22.3044 36.645H31.9762C32.4615 36.645 32.8554 37.0345 32.8554 37.5143C32.8554 37.9941 32.4615 38.3836 31.9762 38.3836Z" fill="#DA291C"/>
<path d="M31.9762 34.9049H22.3044C21.819 34.9049 21.4251 34.5155 21.4251 34.0357C21.4251 33.5558 21.819 33.1664 22.3044 33.1664H31.9762C32.4615 33.1664 32.8554 33.5558 32.8554 34.0357C32.8554 34.5155 32.4615 34.9049 31.9762 34.9049Z" fill="#DA291C"/>
<path d="M2.9608 20.9908C2.47545 20.9908 2.08154 21.3805 2.08154 21.8605C2.08154 22.3406 2.47545 22.7302 2.9608 22.7302H53.0782V47.0813H2.9608C2.47545 47.0813 2.08154 47.4709 2.08154 47.951C2.08154 48.431 2.47545 48.8206 2.9608 48.8206H53.9575C54.4428 48.8206 54.8368 48.431 54.8368 47.951V21.8605C54.8368 21.3805 54.4428 20.9908 53.9575 20.9908H2.9608Z" fill="#DA291C"/>
<path d="M2.08154 25.3375V47.9509C2.08154 48.431 2.47545 48.8206 2.9608 48.8206C3.44614 48.8206 3.84005 48.431 3.84005 47.9509V25.3375C3.84005 24.8574 3.44614 24.4678 2.9608 24.4678C2.47545 24.4678 2.08154 24.8574 2.08154 25.3375Z" fill="#DA291C"/>
</svg>
