<svg width="58" height="56" viewBox="0 0 58 56" fill="none" xmlns="http://www.w3.org/2000/svg">
<mask id="path-1-inside-1_61_89" fill="white">
<path d="M31.5407 17.9419C29.6967 17.9419 27.9098 18.5744 26.4844 19.7315C25.059 20.8886 24.0833 22.4988 23.7236 24.2876C23.3639 26.0765 23.6424 27.9334 24.5116 29.542C25.3809 31.1505 26.7872 32.4112 28.4908 33.1091C30.1945 33.8071 32.0901 33.8992 33.8547 33.3697C35.6193 32.8402 37.1437 31.7219 38.1681 30.2054C39.1926 28.6888 39.6537 26.8679 39.4729 25.0527C39.2922 23.2376 38.4807 21.5406 37.1768 20.2509C35.6815 18.7731 33.6545 17.9427 31.5407 17.9419ZM31.5407 32.5884C30.188 32.5888 28.8654 32.1924 27.7405 31.4492C26.6155 30.7061 25.7387 29.6496 25.2209 28.4134C24.7031 27.1773 24.5676 25.817 24.8316 24.5046C25.0956 23.1923 25.7471 21.9869 26.7039 21.0409C27.6606 20.0949 28.8795 19.4508 30.2063 19.1901C31.5332 18.9294 32.9084 19.0639 34.158 19.5764C35.4076 20.089 36.4755 20.9566 37.2264 22.0696C37.9774 23.1825 38.3778 24.4908 38.3769 25.8288C38.3737 27.621 37.6524 29.3388 36.371 30.6058C35.0896 31.8729 33.3526 32.5858 31.5407 32.5884Z"/>
</mask>
<path d="M31.5407 17.9419C29.6967 17.9419 27.9098 18.5744 26.4844 19.7315C25.059 20.8886 24.0833 22.4988 23.7236 24.2876C23.3639 26.0765 23.6424 27.9334 24.5116 29.542C25.3809 31.1505 26.7872 32.4112 28.4908 33.1091C30.1945 33.8071 32.0901 33.8992 33.8547 33.3697C35.6193 32.8402 37.1437 31.7219 38.1681 30.2054C39.1926 28.6888 39.6537 26.8679 39.4729 25.0527C39.2922 23.2376 38.4807 21.5406 37.1768 20.2509C35.6815 18.7731 33.6545 17.9427 31.5407 17.9419ZM31.5407 32.5884C30.188 32.5888 28.8654 32.1924 27.7405 31.4492C26.6155 30.7061 25.7387 29.6496 25.2209 28.4134C24.7031 27.1773 24.5676 25.817 24.8316 24.5046C25.0956 23.1923 25.7471 21.9869 26.7039 21.0409C27.6606 20.0949 28.8795 19.4508 30.2063 19.1901C31.5332 18.9294 32.9084 19.0639 34.158 19.5764C35.4076 20.089 36.4755 20.9566 37.2264 22.0696C37.9774 23.1825 38.3778 24.4908 38.3769 25.8288C38.3737 27.621 37.6524 29.3388 36.371 30.6058C35.0896 31.8729 33.3526 32.5858 31.5407 32.5884Z" fill="#DA291C"/>
<path d="M31.5407 17.9419L31.5415 15.9419L31.5407 15.9419L31.5407 17.9419ZM39.4729 25.0527L41.4631 24.8545L39.4729 25.0527ZM37.1768 20.2509L38.5832 18.8289L38.5826 18.8284L37.1768 20.2509ZM31.5407 32.5884L31.5414 34.5884L31.5436 34.5884L31.5407 32.5884ZM38.3769 25.8288L40.3769 25.8324L40.3769 25.8301L38.3769 25.8288ZM31.5407 15.9419C29.2399 15.9419 27.0074 16.7309 25.2239 18.1787L27.7449 21.2843C28.8122 20.4178 30.1536 19.9419 31.5408 19.9419L31.5407 15.9419ZM25.2239 18.1787C23.4399 19.6269 22.2148 21.6456 21.7628 23.8934L25.6843 24.6819C25.9518 23.3519 26.678 22.1503 27.7449 21.2843L25.2239 18.1787ZM21.7628 23.8934C21.3108 26.1414 21.6612 28.4741 22.7521 30.4928L26.2711 28.5911C25.6235 27.3928 25.4169 26.0117 25.6843 24.6819L21.7628 23.8934ZM22.7521 30.4928C23.8428 32.5111 25.6045 34.088 27.7326 34.9599L29.249 31.2584C27.9699 30.7344 26.919 29.79 26.2711 28.5911L22.7521 30.4928ZM27.7326 34.9599C29.8604 35.8316 32.2265 35.9463 34.4295 35.2853L33.2799 31.4541C31.9536 31.852 30.5286 31.7826 29.249 31.2584L27.7326 34.9599ZM34.4295 35.2853C36.6327 34.6242 38.5409 33.2265 39.8254 31.3249L36.5108 29.0859C35.7465 30.2174 34.6058 31.0562 33.2799 31.4541L34.4295 35.2853ZM39.8254 31.3249C41.1103 29.4228 41.6903 27.136 41.4631 24.8545L37.4828 25.2509C37.6171 26.5997 37.2748 27.9548 36.5108 29.0859L39.8254 31.3249ZM41.4631 24.8545C41.2359 22.5732 40.2163 20.4442 38.5832 18.8289L35.7703 21.6728C36.7451 22.637 37.3484 23.902 37.4828 25.2509L41.4631 24.8545ZM38.5826 18.8284C36.7109 16.9786 34.1781 15.9429 31.5415 15.9419L31.54 19.9419C33.1309 19.9425 34.6521 20.5677 35.7709 21.6734L38.5826 18.8284ZM31.5401 30.5884C30.5781 30.5887 29.6394 30.3067 28.8429 29.7805L26.6381 33.118C28.0914 34.0781 29.7978 34.589 31.5414 34.5884L31.5401 30.5884ZM28.8429 29.7805C28.0466 29.2544 27.4293 28.5089 27.0656 27.6407L23.3762 29.1861C24.0481 30.7903 25.1845 32.1577 26.6381 33.118L28.8429 29.7805ZM27.0656 27.6407C26.7021 26.7728 26.6073 25.819 26.7923 24.899L22.8709 24.1102C22.528 25.8149 22.7042 27.5817 23.3762 29.1861L27.0656 27.6407ZM26.7923 24.899C26.9774 23.9789 27.4348 23.1308 28.1101 22.463L25.2976 19.6187C24.0595 20.843 23.2137 22.4056 22.8709 24.1102L26.7923 24.899ZM28.1101 22.463C28.7856 21.7951 29.6489 21.3379 30.5919 21.1526L29.8208 17.2276C28.11 17.5637 26.5355 18.3947 25.2976 19.6187L28.1101 22.463ZM30.5919 21.1526C31.535 20.9673 32.5122 21.0631 33.3991 21.4268L34.917 17.726C33.3046 17.0647 31.5314 16.8916 29.8208 17.2276L30.5919 21.1526ZM33.3991 21.4268C34.2857 21.7905 35.0398 22.4047 35.5686 23.1882L38.8843 20.9509C37.9111 19.5086 36.5296 18.3875 34.917 17.726L33.3991 21.4268ZM35.5686 23.1882C36.0971 23.9716 36.3776 24.89 36.3769 25.8275L40.3769 25.8301C40.3781 24.0915 39.8577 22.3934 38.8843 20.9509L35.5686 23.1882ZM36.3769 25.8252C36.3747 27.081 35.8695 28.2891 34.9648 29.1837L37.7772 32.028C39.4353 30.3885 40.3728 28.161 40.3769 25.8324L36.3769 25.8252ZM34.9648 29.1837C34.0594 30.079 32.8275 30.5866 31.5379 30.5884L31.5436 34.5884C33.8778 34.5851 36.1198 33.6668 37.7772 32.028L34.9648 29.1837Z" fill="#DA291C" mask="url(#path-1-inside-1_61_89)"/>
<mask id="path-3-inside-2_61_89" fill="white">
<path d="M42.394 31.9351C42.9398 30.9891 43.3557 29.9753 43.6305 28.9205L47.3365 28.5129C47.4751 28.4978 47.6031 28.4327 47.696 28.33C47.7889 28.2272 47.8402 28.0941 47.8399 27.9563V23.4991C47.8402 23.3613 47.7889 23.2282 47.696 23.1255C47.6031 23.0227 47.4751 22.9576 47.3365 22.9426L43.5766 22.5316C43.2935 21.5143 42.8782 20.5376 42.3413 19.6258L44.6669 16.7493C44.7539 16.6417 44.7978 16.5062 44.7901 16.3686C44.7824 16.231 44.7237 16.101 44.6251 16.0036L41.4378 12.851C41.339 12.7537 41.2075 12.6957 41.0683 12.6881C40.929 12.6804 40.7918 12.7237 40.6828 12.8097L37.779 15.1089C36.8314 14.5835 35.8218 14.176 34.7731 13.8957L34.3576 10.1996C34.3425 10.0625 34.2766 9.93588 34.1727 9.84397C34.0689 9.75206 33.9343 9.70138 33.7949 9.70166H29.2888C29.1493 9.70159 29.0148 9.75232 28.9108 9.84416C28.8068 9.936 28.7406 10.0625 28.7249 10.1996L28.3106 13.8957C27.2487 14.1769 26.2294 14.5966 25.2794 15.1437L22.3306 12.8075C22.2215 12.7216 22.0843 12.6783 21.9451 12.6859C21.8058 12.6935 21.6743 12.7515 21.5755 12.8488L18.3882 16.0014C18.2897 16.0988 18.2309 16.2288 18.2232 16.3664C18.2155 16.504 18.2594 16.6396 18.3464 16.7472L20.7127 19.6736C20.1665 20.5987 19.7495 21.5926 19.473 22.6284L15.7428 23.0393C15.6041 23.0543 15.4759 23.1194 15.3828 23.2221C15.2897 23.3248 15.2383 23.4579 15.2383 23.5959V28.053C15.2383 28.1908 15.2898 28.3238 15.3829 28.4264C15.4761 28.5289 15.6042 28.5938 15.7428 28.6085L19.473 29.0194C19.747 30.0557 20.1626 31.0501 20.7083 31.9753L18.342 34.9028C18.255 35.0104 18.2111 35.146 18.2188 35.2836C18.2265 35.4212 18.2853 35.5512 18.3838 35.6486L21.5711 38.8012C21.6698 38.8987 21.8014 38.9569 21.9407 38.9645C22.08 38.9721 22.2172 38.9287 22.3262 38.8425L25.2739 36.5107C26.2243 37.0571 27.244 37.4761 28.3062 37.7565L28.7205 41.4526C28.7362 41.5897 28.8024 41.7162 28.9064 41.808C29.0104 41.8999 29.1449 41.9506 29.2844 41.9505H33.7905C33.9299 41.9508 34.0645 41.9001 34.1683 41.8082C34.2722 41.7163 34.3381 41.5897 34.3533 41.4526L34.7687 37.7565C35.8512 37.4715 36.8897 37.0429 37.856 36.4824L40.7531 38.774C40.8619 38.8601 40.999 38.9035 41.1381 38.8959C41.2772 38.8883 41.4086 38.8302 41.5071 38.7327L44.6944 35.5801C44.7927 35.4826 44.8513 35.3526 44.859 35.2151C44.8667 35.0776 44.823 34.942 44.7361 34.8344L42.394 31.9351ZM41.0653 37.588L38.5088 35.566L38.3802 35.4138C38.2915 35.3096 38.1674 35.2411 38.0312 35.221C37.895 35.201 37.7561 35.2309 37.6406 35.3051C36.551 35.9911 35.3501 36.4865 34.0906 36.7694C33.966 36.7976 33.8548 36.8667 33.775 36.9654C33.6952 37.0641 33.6514 37.1866 33.6509 37.3129V37.5815L33.2883 40.8308H29.7932L29.4283 37.588V37.3195C29.4278 37.1931 29.3841 37.0706 29.3043 36.9719C29.2245 36.8732 29.1133 36.8041 28.9887 36.7759L28.8854 36.752C27.6967 36.471 26.5623 36.0003 25.5266 35.3583C25.426 35.2964 25.3083 35.2671 25.19 35.2747C25.0718 35.2823 24.9589 35.3264 24.8672 35.4007L22.0184 37.6619L19.5466 35.2105L21.6348 32.6297L21.847 32.3568C21.9169 32.2666 21.9574 32.1575 21.9633 32.0439C21.9692 31.9304 21.9401 31.8178 21.8799 31.7209C21.2341 30.7022 20.7652 29.5837 20.4929 28.4118C20.4688 28.3067 20.4144 28.2108 20.3364 28.1355C20.2584 28.0603 20.1601 28.009 20.0533 27.9878L19.6873 27.9182L16.378 27.5529V24.0971L19.7192 23.7285L20.0335 23.6763C20.144 23.6578 20.2464 23.6073 20.328 23.5313C20.4095 23.4553 20.4665 23.3571 20.4918 23.2491C20.7641 22.0731 21.2337 20.9505 21.881 19.928C21.9419 19.8309 21.9712 19.7177 21.9651 19.6037C21.959 19.4896 21.9178 19.3801 21.847 19.2899L19.5499 16.4395L22.0206 13.9957L24.6034 16.0449L24.8606 16.2623C24.956 16.3429 25.0758 16.3898 25.2012 16.3957C25.3265 16.4016 25.4503 16.3662 25.553 16.2949L25.6333 16.2384C26.6707 15.6113 27.8038 15.1543 28.9887 14.885C29.1133 14.8567 29.2245 14.7877 29.3043 14.689C29.3841 14.5903 29.4278 14.4678 29.4283 14.3414V14.0664L29.7932 10.8268H33.2883L33.6509 14.0675V14.336C33.6514 14.4624 33.6952 14.5849 33.775 14.6835C33.8548 14.7822 33.966 14.8513 34.0906 14.8795C35.3092 15.1601 36.4754 15.6293 37.546 16.2699C37.6508 16.3329 37.7733 16.3607 37.8953 16.3491C38.0173 16.3376 38.1323 16.2873 38.2231 16.2058L40.9927 13.9946L43.4634 16.4384L41.3862 19.0127L41.3785 19.0225L41.1927 19.2627C41.1071 19.3907 41.0752 19.5467 41.1037 19.6976C41.1217 19.7985 41.1656 19.8932 41.2312 19.9726C41.8509 20.9729 42.3072 22.0636 42.5831 23.2045C42.6113 23.3265 42.68 23.4356 42.7782 23.5144C42.8764 23.5932 42.9985 23.6372 43.1249 23.6394H43.3975L46.7079 24.0036V27.4595L43.4107 27.8225L43.1238 27.8497C43.0051 27.8612 42.8932 27.9094 42.8038 27.9875C42.7144 28.0656 42.6522 28.1695 42.6259 28.2846C42.3518 29.5013 41.8733 30.664 41.2103 31.7242C41.1425 31.8323 41.114 31.9601 41.1296 32.0864C41.1452 32.2127 41.2039 32.33 41.2961 32.4188L41.4818 32.5982L43.5404 35.1442L41.0653 37.588Z"/>
</mask>
<path d="M42.394 31.9351C42.9398 30.9891 43.3557 29.9753 43.6305 28.9205L47.3365 28.5129C47.4751 28.4978 47.6031 28.4327 47.696 28.33C47.7889 28.2272 47.8402 28.0941 47.8399 27.9563V23.4991C47.8402 23.3613 47.7889 23.2282 47.696 23.1255C47.6031 23.0227 47.4751 22.9576 47.3365 22.9426L43.5766 22.5316C43.2935 21.5143 42.8782 20.5376 42.3413 19.6258L44.6669 16.7493C44.7539 16.6417 44.7978 16.5062 44.7901 16.3686C44.7824 16.231 44.7237 16.101 44.6251 16.0036L41.4378 12.851C41.339 12.7537 41.2075 12.6957 41.0683 12.6881C40.929 12.6804 40.7918 12.7237 40.6828 12.8097L37.779 15.1089C36.8314 14.5835 35.8218 14.176 34.7731 13.8957L34.3576 10.1996C34.3425 10.0625 34.2766 9.93588 34.1727 9.84397C34.0689 9.75206 33.9343 9.70138 33.7949 9.70166H29.2888C29.1493 9.70159 29.0148 9.75232 28.9108 9.84416C28.8068 9.936 28.7406 10.0625 28.7249 10.1996L28.3106 13.8957C27.2487 14.1769 26.2294 14.5966 25.2794 15.1437L22.3306 12.8075C22.2215 12.7216 22.0843 12.6783 21.9451 12.6859C21.8058 12.6935 21.6743 12.7515 21.5755 12.8488L18.3882 16.0014C18.2897 16.0988 18.2309 16.2288 18.2232 16.3664C18.2155 16.504 18.2594 16.6396 18.3464 16.7472L20.7127 19.6736C20.1665 20.5987 19.7495 21.5926 19.473 22.6284L15.7428 23.0393C15.6041 23.0543 15.4759 23.1194 15.3828 23.2221C15.2897 23.3248 15.2383 23.4579 15.2383 23.5959V28.053C15.2383 28.1908 15.2898 28.3238 15.3829 28.4264C15.4761 28.5289 15.6042 28.5938 15.7428 28.6085L19.473 29.0194C19.747 30.0557 20.1626 31.0501 20.7083 31.9753L18.342 34.9028C18.255 35.0104 18.2111 35.146 18.2188 35.2836C18.2265 35.4212 18.2853 35.5512 18.3838 35.6486L21.5711 38.8012C21.6698 38.8987 21.8014 38.9569 21.9407 38.9645C22.08 38.9721 22.2172 38.9287 22.3262 38.8425L25.2739 36.5107C26.2243 37.0571 27.244 37.4761 28.3062 37.7565L28.7205 41.4526C28.7362 41.5897 28.8024 41.7162 28.9064 41.808C29.0104 41.8999 29.1449 41.9506 29.2844 41.9505H33.7905C33.9299 41.9508 34.0645 41.9001 34.1683 41.8082C34.2722 41.7163 34.3381 41.5897 34.3533 41.4526L34.7687 37.7565C35.8512 37.4715 36.8897 37.0429 37.856 36.4824L40.7531 38.774C40.8619 38.8601 40.999 38.9035 41.1381 38.8959C41.2772 38.8883 41.4086 38.8302 41.5071 38.7327L44.6944 35.5801C44.7927 35.4826 44.8513 35.3526 44.859 35.2151C44.8667 35.0776 44.823 34.942 44.7361 34.8344L42.394 31.9351ZM41.0653 37.588L38.5088 35.566L38.3802 35.4138C38.2915 35.3096 38.1674 35.2411 38.0312 35.221C37.895 35.201 37.7561 35.2309 37.6406 35.3051C36.551 35.9911 35.3501 36.4865 34.0906 36.7694C33.966 36.7976 33.8548 36.8667 33.775 36.9654C33.6952 37.0641 33.6514 37.1866 33.6509 37.3129V37.5815L33.2883 40.8308H29.7932L29.4283 37.588V37.3195C29.4278 37.1931 29.3841 37.0706 29.3043 36.9719C29.2245 36.8732 29.1133 36.8041 28.9887 36.7759L28.8854 36.752C27.6967 36.471 26.5623 36.0003 25.5266 35.3583C25.426 35.2964 25.3083 35.2671 25.19 35.2747C25.0718 35.2823 24.9589 35.3264 24.8672 35.4007L22.0184 37.6619L19.5466 35.2105L21.6348 32.6297L21.847 32.3568C21.9169 32.2666 21.9574 32.1575 21.9633 32.0439C21.9692 31.9304 21.9401 31.8178 21.8799 31.7209C21.2341 30.7022 20.7652 29.5837 20.4929 28.4118C20.4688 28.3067 20.4144 28.2108 20.3364 28.1355C20.2584 28.0603 20.1601 28.009 20.0533 27.9878L19.6873 27.9182L16.378 27.5529V24.0971L19.7192 23.7285L20.0335 23.6763C20.144 23.6578 20.2464 23.6073 20.328 23.5313C20.4095 23.4553 20.4665 23.3571 20.4918 23.2491C20.7641 22.0731 21.2337 20.9505 21.881 19.928C21.9419 19.8309 21.9712 19.7177 21.9651 19.6037C21.959 19.4896 21.9178 19.3801 21.847 19.2899L19.5499 16.4395L22.0206 13.9957L24.6034 16.0449L24.8606 16.2623C24.956 16.3429 25.0758 16.3898 25.2012 16.3957C25.3265 16.4016 25.4503 16.3662 25.553 16.2949L25.6333 16.2384C26.6707 15.6113 27.8038 15.1543 28.9887 14.885C29.1133 14.8567 29.2245 14.7877 29.3043 14.689C29.3841 14.5903 29.4278 14.4678 29.4283 14.3414V14.0664L29.7932 10.8268H33.2883L33.6509 14.0675V14.336C33.6514 14.4624 33.6952 14.5849 33.775 14.6835C33.8548 14.7822 33.966 14.8513 34.0906 14.8795C35.3092 15.1601 36.4754 15.6293 37.546 16.2699C37.6508 16.3329 37.7733 16.3607 37.8953 16.3491C38.0173 16.3376 38.1323 16.2873 38.2231 16.2058L40.9927 13.9946L43.4634 16.4384L41.3862 19.0127L41.3785 19.0225L41.1927 19.2627C41.1071 19.3907 41.0752 19.5467 41.1037 19.6976C41.1217 19.7985 41.1656 19.8932 41.2312 19.9726C41.8509 20.9729 42.3072 22.0636 42.5831 23.2045C42.6113 23.3265 42.68 23.4356 42.7782 23.5144C42.8764 23.5932 42.9985 23.6372 43.1249 23.6394H43.3975L46.7079 24.0036V27.4595L43.4107 27.8225L43.1238 27.8497C43.0051 27.8612 42.8932 27.9094 42.8038 27.9875C42.7144 28.0656 42.6522 28.1695 42.6259 28.2846C42.3518 29.5013 41.8733 30.664 41.2103 31.7242C41.1425 31.8323 41.114 31.9601 41.1296 32.0864C41.1452 32.2127 41.2039 32.33 41.2961 32.4188L41.4818 32.5982L43.5404 35.1442L41.0653 37.588Z" fill="#DA291C" stroke="#DA291C" stroke-width="4" mask="url(#path-3-inside-2_61_89)"/>
<mask id="path-4-inside-3_61_89" fill="white">
<path d="M50.0754 12.5771C47.7432 7.97753 42.6842 2.52246 31.8111 2.52246H31.5364C23.5396 2.58986 17.5936 4.75645 13.8524 8.96136C8.95165 14.4697 9.25169 21.9663 9.61438 24.933C9.71454 25.7756 9.5576 26.6286 9.16377 27.3823L5.45222 34.5702C5.29293 34.8792 5.20175 35.2181 5.18469 35.5645C5.16764 35.911 5.22511 36.257 5.3533 36.5799C5.48149 36.9027 5.67748 37.195 5.92833 37.4373C6.17917 37.6797 6.47916 37.8667 6.80847 37.9859L10.176 39.2002C10.5745 39.3446 10.9263 39.5924 11.1947 39.9175C11.4631 40.2426 11.6381 40.6332 11.7015 41.0482L12.3741 45.3825C12.5792 46.6734 13.2879 47.8332 14.3481 48.6127C15.4084 49.3923 16.7354 49.7293 18.0442 49.5515L25.1761 48.5601V52.9237C25.1761 53.0722 25.2357 53.2146 25.3419 53.3196C25.448 53.4246 25.592 53.4836 25.7421 53.4836C25.8922 53.4836 26.0362 53.4246 26.1423 53.3196C26.2485 53.2146 26.3081 53.0722 26.3081 52.9237V47.9154C26.3083 47.8354 26.291 47.7563 26.2575 47.6835C26.2239 47.6107 26.1748 47.5459 26.1136 47.4936C26.0525 47.4412 25.9808 47.4023 25.9033 47.3794C25.8258 47.3565 25.7442 47.3503 25.6641 47.361L17.8871 48.4405C16.8725 48.5784 15.8438 48.3172 15.0219 47.7131C14.1999 47.109 13.6502 46.2102 13.4908 45.2096L12.8171 40.8754C12.7227 40.2643 12.4646 39.6895 12.0695 39.2105C11.6745 38.7316 11.1569 38.3662 10.5706 38.1522L7.20303 36.9346C7.02415 36.8698 6.86121 36.7683 6.72497 36.6366C6.58872 36.5049 6.48229 36.3461 6.41269 36.1707C6.34309 35.9953 6.31191 35.8073 6.32121 35.6191C6.33051 35.4309 6.38009 35.2468 6.46666 35.079L10.1727 27.8943C10.6679 26.9427 10.8653 25.8667 10.7398 24.8037C10.3991 21.9859 10.1035 14.8741 14.7031 9.70385C18.2201 5.74898 23.8891 3.71066 31.5463 3.64652C39.8552 3.57369 45.8979 6.84043 49.0632 13.0826C53.9343 22.6882 50.892 37.364 44.9966 45.0433C44.9243 45.1419 44.8858 45.2607 44.8867 45.3825V52.9259C44.8867 53.0744 44.9464 53.2168 45.0525 53.3218C45.1587 53.4268 45.3026 53.4857 45.4528 53.4857C45.6029 53.4857 45.7468 53.4268 45.853 53.3218C45.9591 53.2168 46.0188 53.0744 46.0188 52.9259V45.5673C52.0175 37.6141 55.2674 22.8154 50.0754 12.5771Z"/>
</mask>
<path d="M50.0754 12.5771C47.7432 7.97753 42.6842 2.52246 31.8111 2.52246H31.5364C23.5396 2.58986 17.5936 4.75645 13.8524 8.96136C8.95165 14.4697 9.25169 21.9663 9.61438 24.933C9.71454 25.7756 9.5576 26.6286 9.16377 27.3823L5.45222 34.5702C5.29293 34.8792 5.20175 35.2181 5.18469 35.5645C5.16764 35.911 5.22511 36.257 5.3533 36.5799C5.48149 36.9027 5.67748 37.195 5.92833 37.4373C6.17917 37.6797 6.47916 37.8667 6.80847 37.9859L10.176 39.2002C10.5745 39.3446 10.9263 39.5924 11.1947 39.9175C11.4631 40.2426 11.6381 40.6332 11.7015 41.0482L12.3741 45.3825C12.5792 46.6734 13.2879 47.8332 14.3481 48.6127C15.4084 49.3923 16.7354 49.7293 18.0442 49.5515L25.1761 48.5601V52.9237C25.1761 53.0722 25.2357 53.2146 25.3419 53.3196C25.448 53.4246 25.592 53.4836 25.7421 53.4836C25.8922 53.4836 26.0362 53.4246 26.1423 53.3196C26.2485 53.2146 26.3081 53.0722 26.3081 52.9237V47.9154C26.3083 47.8354 26.291 47.7563 26.2575 47.6835C26.2239 47.6107 26.1748 47.5459 26.1136 47.4936C26.0525 47.4412 25.9808 47.4023 25.9033 47.3794C25.8258 47.3565 25.7442 47.3503 25.6641 47.361L17.8871 48.4405C16.8725 48.5784 15.8438 48.3172 15.0219 47.7131C14.1999 47.109 13.6502 46.2102 13.4908 45.2096L12.8171 40.8754C12.7227 40.2643 12.4646 39.6895 12.0695 39.2105C11.6745 38.7316 11.1569 38.3662 10.5706 38.1522L7.20303 36.9346C7.02415 36.8698 6.86121 36.7683 6.72497 36.6366C6.58872 36.5049 6.48229 36.3461 6.41269 36.1707C6.34309 35.9953 6.31191 35.8073 6.32121 35.6191C6.33051 35.4309 6.38009 35.2468 6.46666 35.079L10.1727 27.8943C10.6679 26.9427 10.8653 25.8667 10.7398 24.8037C10.3991 21.9859 10.1035 14.8741 14.7031 9.70385C18.2201 5.74898 23.8891 3.71066 31.5463 3.64652C39.8552 3.57369 45.8979 6.84043 49.0632 13.0826C53.9343 22.6882 50.892 37.364 44.9966 45.0433C44.9243 45.1419 44.8858 45.2607 44.8867 45.3825V52.9259C44.8867 53.0744 44.9464 53.2168 45.0525 53.3218C45.1587 53.4268 45.3026 53.4857 45.4528 53.4857C45.6029 53.4857 45.7468 53.4268 45.853 53.3218C45.9591 53.2168 46.0188 53.0744 46.0188 52.9259V45.5673C52.0175 37.6141 55.2674 22.8154 50.0754 12.5771Z" fill="#DA291C"/>
<path d="M50.0754 12.5771L48.2916 13.4815L48.2917 13.4816L50.0754 12.5771ZM31.5364 2.52246V0.522461H31.5279L31.5195 0.522532L31.5364 2.52246ZM13.8524 8.96136L12.3582 7.63193L12.3582 7.63196L13.8524 8.96136ZM9.61438 24.933L11.6004 24.697L11.5996 24.6903L9.61438 24.933ZM9.16377 27.3823L7.39117 26.456L7.38669 26.4647L9.16377 27.3823ZM5.45222 34.5702L3.67514 33.6526L3.67452 33.6538L5.45222 34.5702ZM6.80847 37.9859L6.12779 39.8665L6.13005 39.8673L6.80847 37.9859ZM10.176 39.2002L10.8576 37.3199L10.8544 37.3187L10.176 39.2002ZM11.7015 41.0482L9.72442 41.3501L9.72517 41.3549L11.7015 41.0482ZM12.3741 45.3825L10.3978 45.6892L10.3989 45.6962L12.3741 45.3825ZM18.0442 49.5515L18.3135 51.5333L18.3196 51.5325L18.0442 49.5515ZM25.1761 48.5601H27.1761V46.2628L24.9007 46.5791L25.1761 48.5601ZM26.3081 47.9154L24.3081 47.9104V47.9154H26.3081ZM26.1136 47.4936L24.8113 49.0116L24.8145 49.0143L26.1136 47.4936ZM25.6641 47.361L25.3983 45.3787L25.3891 45.38L25.6641 47.361ZM17.8871 48.4405L18.1563 50.4223L18.162 50.4215L17.8871 48.4405ZM13.4908 45.2096L11.5145 45.5168L11.5157 45.5242L13.4908 45.2096ZM12.8171 40.8754L10.8405 41.1805L10.8408 41.1826L12.8171 40.8754ZM10.5706 38.1522L11.2563 36.2734L11.2506 36.2714L10.5706 38.1522ZM7.20303 36.9346L6.52197 38.8151L6.523 38.8155L7.20303 36.9346ZM6.46666 35.079L4.6892 34.1621L4.68916 34.1622L6.46666 35.079ZM10.1727 27.8943L8.39848 26.9712L8.39525 26.9774L10.1727 27.8943ZM10.7398 24.8037L12.7261 24.5693L12.7254 24.5636L10.7398 24.8037ZM14.7031 9.70385L16.1973 11.0332L16.1976 11.0329L14.7031 9.70385ZM31.5463 3.64652L31.563 5.64645L31.5638 5.64645L31.5463 3.64652ZM49.0632 13.0826L47.2794 13.9871L47.2794 13.9871L49.0632 13.0826ZM44.9966 45.0433L43.4102 43.8254L43.3972 43.8424L43.3845 43.8596L44.9966 45.0433ZM44.8867 45.3825H46.8867V45.3746L46.8867 45.3667L44.8867 45.3825ZM44.8867 52.9259H46.8867H44.8867ZM46.0188 45.5673L44.422 44.363L44.0188 44.8976V45.5673H46.0188ZM51.8592 11.6726C50.5743 9.13854 48.5178 6.33025 45.2536 4.15955C41.9763 1.98023 37.5992 0.522461 31.8111 0.522461V4.52246C36.8961 4.52246 40.4851 5.79223 43.0386 7.49033C45.6052 9.19704 47.2443 11.4161 48.2916 13.4815L51.8592 11.6726ZM31.8111 0.522461H31.5364V4.52246H31.8111V0.522461ZM31.5195 0.522532C23.2009 0.592645 16.6109 2.85209 12.3582 7.63193L15.3466 10.2908C18.5763 6.66081 23.8782 4.58708 31.5532 4.52239L31.5195 0.522532ZM12.3582 7.63196C6.85098 13.8219 7.25238 22.0938 7.62917 25.1757L11.5996 24.6903C11.251 21.8389 11.0523 15.1175 15.3466 10.2908L12.3582 7.63196ZM7.62836 25.1691C7.68085 25.6107 7.59886 26.0586 7.39119 26.456L10.9363 28.3085C11.5163 27.1986 11.7482 25.9406 11.6004 24.697L7.62836 25.1691ZM7.38669 26.4647L3.67514 33.6526L7.22929 35.4878L10.9408 28.2999L7.38669 26.4647ZM3.67452 33.6538C3.38467 34.2161 3.21824 34.8338 3.18711 35.4662L7.18228 35.6629C7.18525 35.6024 7.20119 35.5423 7.22991 35.4866L3.67452 33.6538ZM3.18711 35.4662C3.15599 36.0986 3.26095 36.7298 3.49447 37.318L7.21213 35.8418C7.18927 35.7842 7.1793 35.7234 7.18228 35.6629L3.18711 35.4662ZM3.49447 37.318C3.72797 37.906 4.08431 38.4367 4.53863 38.8757L7.31802 35.999C7.27065 35.9533 7.23501 35.8994 7.21213 35.8418L3.49447 37.318ZM4.53863 38.8757C4.99288 39.3146 5.53475 39.6518 6.12779 39.8665L7.48915 36.1053C7.42357 36.0815 7.36546 36.0449 7.31802 35.999L4.53863 38.8757ZM6.13005 39.8673L9.49759 41.0816L10.8544 37.3187L7.48689 36.1044L6.13005 39.8673ZM9.49442 41.0804C9.5587 41.1037 9.6127 41.1427 9.6523 41.1907L12.7371 38.6443C12.2399 38.042 11.5902 37.5855 10.8576 37.3199L9.49442 41.0804ZM9.6523 41.1907C9.69175 41.2385 9.71582 41.2937 9.72443 41.3501L13.6786 40.7463C13.5605 39.9727 13.2344 39.2468 12.7371 38.6443L9.6523 41.1907ZM9.72517 41.3549L10.3978 45.6892L14.3505 45.0758L13.6779 40.7415L9.72517 41.3549ZM10.3989 45.6962C10.6871 47.5107 11.6825 49.1352 13.1634 50.224L15.5329 47.0014C14.8934 46.5312 14.4712 45.836 14.3494 45.0688L10.3989 45.6962ZM13.1634 50.224C14.6436 51.3123 16.4924 51.7807 18.3135 51.5333L17.775 47.5697C16.9785 47.678 16.1732 47.4722 15.5329 47.0014L13.1634 50.224ZM18.3196 51.5325L25.4515 50.541L24.9007 46.5791L17.7688 47.5706L18.3196 51.5325ZM23.1761 48.5601V52.9237H27.1761V48.5601H23.1761ZM23.1761 52.9237C23.1761 53.6097 23.4518 54.2632 23.9354 54.7415L26.7483 51.8977C27.0196 52.166 27.1761 52.5346 27.1761 52.9237H23.1761ZM23.9354 54.7415C24.4182 55.2191 25.0685 55.4836 25.7421 55.4836V51.4836C26.1154 51.4836 26.4778 51.6301 26.7483 51.8977L23.9354 54.7415ZM25.7421 55.4836C26.4156 55.4836 27.0659 55.2191 27.5488 54.7415L24.7359 51.8977C25.0064 51.6301 25.3688 51.4836 25.7421 51.4836V55.4836ZM27.5488 54.7415C28.0324 54.2632 28.3081 53.6097 28.3081 52.9237H24.3081C24.3081 52.5346 24.4646 52.166 24.7359 51.8977L27.5488 54.7415ZM28.3081 52.9237V47.9154H24.3081V52.9237H28.3081ZM28.3081 47.9204C28.309 47.549 28.2288 47.1823 28.0736 46.8459L24.4413 48.5211C24.3533 48.3303 24.3076 48.1219 24.3081 47.9104L28.3081 47.9204ZM28.0736 46.8459C27.9185 46.5095 27.6925 46.212 27.4126 45.9729L24.8145 49.0143C24.6571 48.8798 24.5293 48.7119 24.4413 48.5211L28.0736 46.8459ZM27.4159 45.9757C27.1395 45.7386 26.8166 45.5637 26.4692 45.4612L25.3373 49.2977C25.1449 49.2409 24.9654 49.1438 24.8113 49.0115L27.4159 45.9757ZM26.4692 45.4612C26.1218 45.3586 25.7568 45.3307 25.3983 45.3788L25.9298 49.3433C25.7316 49.3699 25.5297 49.3544 25.3373 49.2977L26.4692 45.4612ZM25.3891 45.38L17.6121 46.4595L18.162 50.4215L25.939 49.342L25.3891 45.38ZM17.6178 46.4587C17.1154 46.527 16.6083 46.397 16.2062 46.1015L13.8375 49.3247C15.0794 50.2374 16.6297 50.6297 18.1563 50.4223L17.6178 46.4587ZM16.2062 46.1015C15.8049 45.8066 15.5419 45.3721 15.4659 44.895L11.5157 45.5242C11.7584 47.0483 12.5949 48.4115 13.8375 49.3247L16.2062 46.1015ZM15.4671 44.9025L14.7933 40.5682L10.8408 41.1826L11.5145 45.5168L15.4671 44.9025ZM14.7937 40.5703C14.6442 39.602 14.2354 38.6932 13.6123 37.9378L10.5268 40.4833C10.6938 40.6858 10.8013 40.9267 10.8405 41.1805L14.7937 40.5703ZM13.6123 37.9378C12.9894 37.1827 12.1753 36.6088 11.2563 36.2734L9.88486 40.031C10.1384 40.1235 10.3596 40.2806 10.5268 40.4833L13.6123 37.9378ZM11.2506 36.2714L7.88306 35.0538L6.523 38.8155L9.89054 40.033L11.2506 36.2714ZM7.88409 35.0542C7.96893 35.0849 8.04783 35.1337 8.11496 35.1985L5.33497 38.0746C5.67458 38.4029 6.07937 38.6548 6.52197 38.8151L7.88409 35.0542ZM8.11496 35.1985C8.18213 35.2635 8.23601 35.3431 8.27167 35.433L4.5537 36.9084C4.72856 37.349 4.99531 37.7463 5.33497 38.0746L8.11496 35.1985ZM8.27167 35.433C8.30735 35.5229 8.3236 35.6201 8.31877 35.7178L4.32365 35.5203C4.30021 35.9945 4.37882 36.4677 4.5537 36.9084L8.27167 35.433ZM8.31877 35.7178C8.31394 35.8156 8.28821 35.9103 8.24415 35.9957L4.68916 34.1622C4.47197 34.5833 4.34709 35.0462 4.32365 35.5203L8.31877 35.7178ZM8.24412 35.9958L11.9502 28.8112L8.39525 26.9774L4.6892 34.1621L8.24412 35.9958ZM11.9469 28.8174C12.6268 27.5108 12.8986 26.0316 12.726 24.5693L8.75361 25.0381C8.83194 25.7018 8.70892 26.3746 8.39849 26.9712L11.9469 28.8174ZM12.7254 24.5636C12.397 21.848 12.2077 15.5178 16.1973 11.0332L13.2088 8.3745C7.99922 14.2304 8.40122 22.1238 8.75429 25.0438L12.7254 24.5636ZM16.1976 11.0329C19.1965 7.66065 24.2137 5.70801 31.563 5.64645L31.5295 1.64659C23.5645 1.71331 17.2437 3.8373 13.2085 8.37479L16.1976 11.0329ZM31.5638 5.64645C39.2825 5.57878 44.5282 8.56162 47.2794 13.9871L50.847 12.178C47.2675 5.11923 40.428 1.56859 31.5287 1.6466L31.5638 5.64645ZM47.2794 13.9871C49.4665 18.3 49.9393 23.9132 49.0902 29.4839C48.2421 35.048 46.1143 40.3032 43.4102 43.8254L46.5831 46.2612C49.7744 42.1042 52.1154 36.1818 53.0445 30.0867C53.9725 23.9983 53.5309 17.4707 50.8469 12.178L47.2794 13.9871ZM43.3845 43.8596C43.058 44.3043 42.8824 44.8435 42.8868 45.3983L46.8867 45.3667C46.8891 45.6779 46.7905 45.9794 46.6088 46.227L43.3845 43.8596ZM42.8867 45.3825V52.9259H46.8867V45.3825H42.8867ZM42.8867 52.9259C42.8867 53.6119 43.1625 54.2654 43.6461 54.7437L46.459 51.8998C46.7303 52.1682 46.8867 52.5368 46.8867 52.9259L42.8867 52.9259ZM43.6461 54.7437C44.129 55.2213 44.7793 55.4857 45.4528 55.4857V51.4857C45.826 51.4857 46.1884 51.6322 46.459 51.8998L43.6461 54.7437ZM45.4528 55.4857C46.1262 55.4857 46.7765 55.2213 47.2594 54.7437L44.4465 51.8998C44.7171 51.6322 45.0795 51.4857 45.4528 51.4857V55.4857ZM47.2594 54.7437C47.7431 54.2654 48.0188 53.6119 48.0188 52.9259H44.0188C44.0188 52.5368 44.1752 52.1682 44.4465 51.8998L47.2594 54.7437ZM48.0188 52.9259V45.5673H44.0188V52.9259H48.0188ZM47.6155 46.7716C50.8434 42.492 53.2651 36.4813 54.2206 30.2314C55.1758 23.9844 54.699 17.2724 51.8592 11.6725L48.2917 13.4816C50.6439 18.12 51.1381 23.9266 50.2666 29.6268C49.3955 35.3241 47.1928 40.6894 44.422 44.363L47.6155 46.7716Z" fill="#DA291C" mask="url(#path-4-inside-3_61_89)"/>
</svg>
