<svg width="38" height="38" viewBox="0 0 38 38" fill="none" xmlns="http://www.w3.org/2000/svg">
<g clip-path="url(#clip0_867_18396)">
<path d="M9.5 7.91667C9.5 7.07681 9.83363 6.27136 10.4275 5.6775C11.0214 5.08363 11.8268 4.75 12.6667 4.75H25.3333C26.1732 4.75 26.9786 5.08363 27.5725 5.6775C28.1664 6.27136 28.5 7.07681 28.5 7.91667V30.0833C28.5 30.9232 28.1664 31.7286 27.5725 32.3225C26.9786 32.9164 26.1732 33.25 25.3333 33.25H12.6667C11.8268 33.25 11.0214 32.9164 10.4275 32.3225C9.83363 31.7286 9.5 30.9232 9.5 30.0833V7.91667Z" stroke="#DA291C" stroke-width="1.25" stroke-linecap="round" stroke-linejoin="round"/>
<path d="M17.4165 6.33337H20.5832" stroke="#DA291C" stroke-width="1.25" stroke-linecap="round" stroke-linejoin="round"/>
<path d="M19 26.9166V26.93" stroke="#DA291C" stroke-width="1.25" stroke-linecap="round" stroke-linejoin="round"/>
</g>
<defs>
<clipPath id="clip0_867_18396">
<rect width="38" height="38" fill="white"/>
</clipPath>
</defs>
</svg>
