<svg width="120" height="120" viewBox="0 0 120 120" fill="#fff" xmlns="http://www.w3.org/2000/svg">
<path d="M71 61.5H90V58H71V61.5ZM71 48H90V44.5H71V48ZM30 75.5H61V75.25C61 72.5833 59.6458 70.5417 56.9375 69.125C54.2292 67.7083 50.4167 67 45.5 67C40.5833 67 36.7708 67.7083 34.0625 69.125C31.3542 70.5417 30 72.5833 30 75.25V75.5ZM45.5 58C47.4167 58 49.0208 57.3542 50.3125 56.0625C51.6042 54.7708 52.25 53.1667 52.25 51.25C52.25 49.3333 51.6042 47.7292 50.3125 46.4375C49.0208 45.1458 47.4167 44.5 45.5 44.5C43.5833 44.5 41.9792 45.1458 40.6875 46.4375C39.3958 47.7292 38.75 49.3333 38.75 51.25C38.75 53.1667 39.3958 54.7708 40.6875 56.0625C41.9792 57.3542 43.5833 58 45.5 58ZM24 93.5C21.8333 93.5 20.0417 92.7917 18.625 91.375C17.2083 89.9583 16.5 88.1667 16.5 86V34C16.5 31.8333 17.2083 30.0417 18.625 28.625C20.0417 27.2083 21.8333 26.5 24 26.5H96C98.1667 26.5 99.9583 27.2083 101.375 28.625C102.792 30.0417 103.5 31.8333 103.5 34V86C103.5 88.1667 102.792 89.9583 101.375 91.375C99.9583 92.7917 98.1667 93.5 96 93.5H24ZM24 90H96C97 90 97.9167 89.5833 98.75 88.75C99.5833 87.9167 100 87 100 86V34C100 33 99.5833 32.0833 98.75 31.25C97.9167 30.4167 97 30 96 30H24C23 30 22.0833 30.4167 21.25 31.25C20.4167 32.0833 20 33 20 34V86C20 87 20.4167 87.9167 21.25 88.75C22.0833 89.5833 23 90 24 90Z" fill="#DA291C"/>
</svg>
