<svg width="40" height="40" viewBox="0 0 40 40" fill="none" xmlns="http://www.w3.org/2000/svg">
<path d="M8.33329 31.6666V8.33323V27.0574V23.6761V31.6666ZM9.35913 33.3332C8.5919 33.3332 7.95135 33.0763 7.43746 32.5624C6.92357 32.0485 6.66663 31.408 6.66663 30.6407V9.35906C6.66663 8.59184 6.92357 7.95129 7.43746 7.4374C7.95135 6.92351 8.5919 6.66656 9.35913 6.66656H30.6408C31.408 6.66656 32.0486 6.92351 32.5625 7.4374C33.0763 7.95129 33.3333 8.59184 33.3333 9.35906V22.6282H31.6666V9.35906C31.6666 9.1024 31.5598 8.86726 31.3462 8.65365C31.1326 8.44004 30.8975 8.33323 30.6408 8.33323H9.35913C9.10246 8.33323 8.86732 8.44004 8.65371 8.65365C8.4401 8.86726 8.33329 9.1024 8.33329 9.35906V30.6407C8.33329 30.8974 8.4401 31.1325 8.65371 31.3461C8.86732 31.5598 9.10246 31.6666 9.35913 31.6666H19.9358V33.3332H9.35913ZM28.7562 34.9999L24.1858 30.4616L25.375 29.282L28.7562 32.6632L35.5191 25.9007L36.6987 27.0895L28.7562 34.9999ZM13.5258 21.282C13.8911 21.282 14.1961 21.1596 14.4408 20.9149C14.6852 20.6702 14.8075 20.3652 14.8075 19.9999C14.8075 19.6346 14.6852 19.3296 14.4408 19.0849C14.1961 18.8402 13.8911 18.7178 13.5258 18.7178C13.1602 18.7178 12.8551 18.8402 12.6104 19.0849C12.3659 19.3296 12.2437 19.6346 12.2437 19.9999C12.2437 20.3652 12.3659 20.6702 12.6104 20.9149C12.8551 21.1596 13.1602 21.282 13.5258 21.282ZM13.5258 14.9999C13.8911 14.9999 14.1961 14.8775 14.4408 14.6328C14.6852 14.3881 14.8075 14.0831 14.8075 13.7178C14.8075 13.3525 14.6852 13.0475 14.4408 12.8028C14.1961 12.5581 13.8911 12.4357 13.5258 12.4357C13.1602 12.4357 12.8551 12.5581 12.6104 12.8028C12.3659 13.0475 12.2437 13.3525 12.2437 13.7178C12.2437 14.0831 12.3659 14.3881 12.6104 14.6328C12.8551 14.8775 13.1602 14.9999 13.5258 14.9999ZM18.6537 20.8332H27.6283V19.1666H18.6537V20.8332ZM18.6537 14.5511H27.6283V12.8845H18.6537V14.5511Z" fill="#231F20"/>
</svg>
