<svg width="40" height="40" viewBox="0 0 40 40" fill="none" xmlns="http://www.w3.org/2000/svg">
<path d="M13.3333 34.7436V26.6665H5.25623V13.3332H13.3333V5.25613H26.6666V13.3332H34.7437V26.6665H26.6666V34.7436H13.3333ZM6.92289 19.1665H15C15.1494 19.1665 15.2797 19.1986 15.3908 19.2628C15.5019 19.327 15.595 19.4167 15.67 19.532L18.0896 23.1407L20.8846 14.7561C20.9529 14.5725 21.0528 14.4284 21.1841 14.3236C21.3155 14.2189 21.4743 14.1665 21.6604 14.1665C21.8034 14.1665 21.9394 14.2004 22.0683 14.2682C22.1969 14.3357 22.2971 14.4236 22.3687 14.532L25.4262 19.1665H33.0771V14.9999H25V6.9228H15V14.9999H6.92289V19.1665ZM15 33.077H25V24.9999H33.0771V20.8332H25C24.8605 20.8332 24.728 20.7964 24.6025 20.7228C24.4769 20.6492 24.3722 20.5535 24.2883 20.4357L21.9104 16.859L19.1154 25.2436C19.0471 25.4272 18.9403 25.5714 18.795 25.6761C18.6497 25.7809 18.4809 25.8332 18.2887 25.8332C18.1412 25.8332 18.0119 25.8011 17.9008 25.737C17.7897 25.6728 17.6966 25.5831 17.6216 25.4678L14.5321 20.8332H6.92289V24.9999H15V33.077Z" fill="#231F20"/>
</svg>
