<svg width="45" height="45" viewBox="0 0 45 45" fill="none" xmlns="http://www.w3.org/2000/svg">
<g clip-path="url(#clip0_864_1047)">
<path d="M7.5 15C7.5 13.0109 8.29018 11.1032 9.6967 9.6967C11.1032 8.29018 13.0109 7.5 15 7.5H30C31.9891 7.5 33.8968 8.29018 35.3033 9.6967C36.7098 11.1032 37.5 13.0109 37.5 15V30C37.5 31.9891 36.7098 33.8968 35.3033 35.3033C33.8968 36.7098 31.9891 37.5 30 37.5H15C13.0109 37.5 11.1032 36.7098 9.6967 35.3033C8.29018 33.8968 7.5 31.9891 7.5 30V15Z" stroke="white" stroke-width="1.25" stroke-linecap="round" stroke-linejoin="round"/>
<path d="M16.875 22.5C16.875 23.9918 17.4676 25.4226 18.5225 26.4775C19.5774 27.5324 21.0082 28.125 22.5 28.125C23.9918 28.125 25.4226 27.5324 26.4775 26.4775C27.5324 25.4226 28.125 23.9918 28.125 22.5C28.125 21.0082 27.5324 19.5774 26.4775 18.5225C25.4226 17.4676 23.9918 16.875 22.5 16.875C21.0082 16.875 19.5774 17.4676 18.5225 18.5225C17.4676 19.5774 16.875 21.0082 16.875 22.5Z" stroke="white" stroke-width="1.25" stroke-linecap="round" stroke-linejoin="round"/>
<path d="M30.9375 14.0625V14.0758" stroke="white" stroke-width="1.25" stroke-linecap="round" stroke-linejoin="round"/>
</g>
<defs>
<clipPath id="clip0_864_1047">
<rect width="45" height="45" fill="white"/>
</clipPath>
</defs>
</svg>
