<svg width="30" height="30" viewBox="0 0 30 30" fill="none" xmlns="http://www.w3.org/2000/svg">
<rect width="30" height="30" fill="white"/>
<path d="M17.25 17.4375C19.8375 17.4375 21.9375 15.3187 21.9375 12.75C21.9375 10.1625 19.8375 8.0625 17.25 8.0625C14.6813 8.0625 12.5625 10.1625 12.5625 12.75C12.5625 15.3187 14.6813 17.4375 17.25 17.4375ZM17.25 16.5C15.1969 16.5 13.5 14.8031 13.5 12.75C13.5 10.6781 15.1969 9 17.25 9C19.3219 9 21 10.6781 21 12.75C21 14.8031 19.3219 16.5 17.25 16.5ZM23.8125 6.89062C24.2063 6.89062 24.5156 6.5625 24.5156 6.1875C24.5156 5.79375 24.2063 5.48438 23.8125 5.48438C23.4375 5.48438 23.1094 5.79375 23.1094 6.1875C23.1094 6.5625 23.4375 6.89062 23.8125 6.89062ZM26.5875 1.5H7.9125C6.80625 1.5 6 2.30625 6 3.4125V22.0875C6 23.1937 6.80625 24 7.9125 24H26.5875C27.6938 24 28.5 23.1937 28.5 22.0875V3.4125C28.5 2.30625 27.6938 1.5 26.5875 1.5ZM27.5625 3.39375V22.1062C27.5625 22.6594 27.1594 23.0625 26.6063 23.0625H7.89375C7.34063 23.0625 6.9375 22.6594 6.9375 22.1062V3.39375C6.9375 2.84062 7.34063 2.4375 7.89375 2.4375H26.6063C27.1594 2.4375 27.5625 2.84062 27.5625 3.39375Z" fill="#231F20"/>
</svg>
