<svg width="38" height="38" viewBox="0 0 38 38" fill="none" xmlns="http://www.w3.org/2000/svg">
<g clip-path="url(#clip0_867_18404)">
<path d="M6.3335 12.6667C6.3335 10.987 7.00076 9.37609 8.18849 8.18836C9.37622 7.00063 10.9871 6.33337 12.6668 6.33337H25.3335C27.0132 6.33337 28.6241 7.00063 29.8118 8.18836C30.9996 9.37609 31.6668 10.987 31.6668 12.6667V25.3334C31.6668 27.0131 30.9996 28.624 29.8118 29.8117C28.6241 30.9994 27.0132 31.6667 25.3335 31.6667H12.6668C10.9871 31.6667 9.37622 30.9994 8.18849 29.8117C7.00076 28.624 6.3335 27.0131 6.3335 25.3334V12.6667Z" stroke="#DA291C" stroke-width="1.25" stroke-linecap="round" stroke-linejoin="round"/>
<path d="M14.25 19C14.25 20.2598 14.7504 21.468 15.6412 22.3588C16.532 23.2496 17.7402 23.75 19 23.75C20.2598 23.75 21.468 23.2496 22.3588 22.3588C23.2496 21.468 23.75 20.2598 23.75 19C23.75 17.7402 23.2496 16.532 22.3588 15.6412C21.468 14.7504 20.2598 14.25 19 14.25C17.7402 14.25 16.532 14.7504 15.6412 15.6412C14.7504 16.532 14.25 17.7402 14.25 19Z" stroke="#DA291C" stroke-width="1.25" stroke-linecap="round" stroke-linejoin="round"/>
<path d="M26.125 11.875V11.885" stroke="#DA291C" stroke-width="1.25" stroke-linecap="round" stroke-linejoin="round"/>
</g>
<defs>
<clipPath id="clip0_867_18404">
<rect width="38" height="38" fill="white"/>
</clipPath>
</defs>
</svg>
