<svg width="58" height="56" viewBox="0 0 58 56" fill="none" xmlns="http://www.w3.org/2000/svg">
<path d="M31.5409 33.0884L31.5415 33.0884C33.4839 33.0856 35.3472 32.3214 36.7226 30.9614C38.0981 29.6012 38.8735 27.756 38.8769 25.8297V25.8291C38.8779 24.3909 38.4475 22.9852 37.6409 21.7899C36.8344 20.5946 35.6881 19.6636 34.3478 19.1138C33.0075 18.5641 31.5328 18.42 30.1099 18.6995C28.6871 18.979 27.3793 19.6698 26.3523 20.6853C25.3252 21.7009 24.6251 22.9956 24.3414 24.406C24.0577 25.8165 24.2034 27.2784 24.7597 28.6066C25.3161 29.9347 26.2578 31.069 27.4649 31.8664C28.6719 32.6638 30.0904 33.0889 31.5409 33.0884ZM26.7995 20.1197C28.1354 19.0353 29.8108 18.442 31.5406 18.4419L31.5408 18.4419C33.5237 18.4427 35.4242 19.2218 36.8253 20.6065C38.0468 21.8148 38.8062 23.4037 38.9754 25.1023C39.1445 26.8008 38.7131 28.5053 37.7538 29.9255C36.7944 31.3458 35.3659 32.3942 33.711 32.8908C32.056 33.3874 30.278 33.301 28.6804 32.6465C27.0829 31.992 25.7654 30.8104 24.9515 29.3043C24.1377 27.7983 23.8771 26.0603 24.2138 24.3862C24.5504 22.7121 25.4637 21.204 26.7995 20.1197Z" fill="#DA291C" stroke="#DA291C"/>
<mask id="path-2-inside-1_61_89" fill="white">
<path d="M42.394 31.9351C42.9398 30.9891 43.3557 29.9753 43.6305 28.9205L47.3365 28.5129C47.4751 28.4978 47.6031 28.4327 47.696 28.33C47.7889 28.2272 47.8402 28.0941 47.8399 27.9563V23.4991C47.8402 23.3613 47.7889 23.2282 47.696 23.1255C47.6031 23.0227 47.4751 22.9576 47.3365 22.9426L43.5766 22.5316C43.2935 21.5143 42.8782 20.5376 42.3413 19.6258L44.6669 16.7493C44.7539 16.6417 44.7978 16.5062 44.7901 16.3686C44.7824 16.231 44.7237 16.101 44.6251 16.0036L41.4378 12.851C41.339 12.7537 41.2075 12.6957 41.0683 12.6881C40.929 12.6804 40.7918 12.7237 40.6828 12.8097L37.779 15.1089C36.8314 14.5835 35.8218 14.176 34.7731 13.8957L34.3576 10.1996C34.3425 10.0625 34.2766 9.93588 34.1727 9.84397C34.0689 9.75206 33.9343 9.70138 33.7949 9.70166H29.2888C29.1493 9.70159 29.0148 9.75232 28.9108 9.84416C28.8068 9.936 28.7406 10.0625 28.7249 10.1996L28.3106 13.8957C27.2487 14.1769 26.2294 14.5966 25.2794 15.1437L22.3306 12.8075C22.2215 12.7216 22.0843 12.6783 21.9451 12.6859C21.8058 12.6935 21.6743 12.7515 21.5755 12.8488L18.3882 16.0014C18.2897 16.0988 18.2309 16.2288 18.2232 16.3664C18.2155 16.504 18.2594 16.6396 18.3464 16.7472L20.7127 19.6736C20.1665 20.5987 19.7495 21.5926 19.473 22.6284L15.7428 23.0393C15.6041 23.0543 15.4759 23.1194 15.3828 23.2221C15.2897 23.3248 15.2383 23.4579 15.2383 23.5959V28.053C15.2383 28.1908 15.2898 28.3238 15.3829 28.4264C15.4761 28.5289 15.6042 28.5938 15.7428 28.6085L19.473 29.0194C19.747 30.0557 20.1626 31.0501 20.7083 31.9753L18.342 34.9028C18.255 35.0104 18.2111 35.146 18.2188 35.2836C18.2265 35.4212 18.2853 35.5512 18.3838 35.6486L21.5711 38.8012C21.6698 38.8987 21.8014 38.9569 21.9407 38.9645C22.08 38.9721 22.2172 38.9287 22.3262 38.8425L25.2739 36.5107C26.2243 37.0571 27.244 37.4761 28.3062 37.7565L28.7205 41.4526C28.7362 41.5897 28.8024 41.7162 28.9064 41.808C29.0104 41.8999 29.1449 41.9506 29.2844 41.9505H33.7905C33.9299 41.9508 34.0645 41.9001 34.1683 41.8082C34.2722 41.7163 34.3381 41.5897 34.3533 41.4526L34.7687 37.7565C35.8512 37.4715 36.8897 37.0429 37.856 36.4824L40.7531 38.774C40.8619 38.8601 40.999 38.9035 41.1381 38.8959C41.2772 38.8883 41.4086 38.8302 41.5071 38.7327L44.6944 35.5801C44.7927 35.4826 44.8513 35.3526 44.859 35.2151C44.8667 35.0776 44.823 34.942 44.7361 34.8344L42.394 31.9351ZM41.0653 37.588L38.5088 35.566L38.3802 35.4138C38.2915 35.3096 38.1674 35.2411 38.0312 35.221C37.895 35.201 37.7561 35.2309 37.6406 35.3051C36.551 35.9911 35.3501 36.4865 34.0906 36.7694C33.966 36.7976 33.8548 36.8667 33.775 36.9654C33.6952 37.0641 33.6514 37.1866 33.6509 37.3129V37.5815L33.2883 40.8308H29.7932L29.4283 37.588V37.3195C29.4278 37.1931 29.3841 37.0706 29.3043 36.9719C29.2245 36.8732 29.1133 36.8041 28.9887 36.7759L28.8854 36.752C27.6967 36.471 26.5623 36.0003 25.5266 35.3583C25.426 35.2964 25.3083 35.2671 25.19 35.2747C25.0718 35.2823 24.9589 35.3264 24.8672 35.4007L22.0184 37.6619L19.5466 35.2105L21.6348 32.6297L21.847 32.3568C21.9169 32.2666 21.9574 32.1575 21.9633 32.0439C21.9692 31.9304 21.9401 31.8178 21.8799 31.7209C21.2341 30.7022 20.7652 29.5837 20.4929 28.4118C20.4688 28.3067 20.4144 28.2108 20.3364 28.1355C20.2584 28.0603 20.1601 28.009 20.0533 27.9878L19.6873 27.9182L16.378 27.5529V24.0971L19.7192 23.7285L20.0335 23.6763C20.144 23.6578 20.2464 23.6073 20.328 23.5313C20.4095 23.4553 20.4665 23.3571 20.4918 23.2491C20.7641 22.0731 21.2337 20.9505 21.881 19.928C21.9419 19.8309 21.9712 19.7177 21.9651 19.6037C21.959 19.4896 21.9178 19.3801 21.847 19.2899L19.5499 16.4395L22.0206 13.9957L24.6034 16.0449L24.8606 16.2623C24.956 16.3429 25.0758 16.3898 25.2012 16.3957C25.3265 16.4016 25.4503 16.3662 25.553 16.2949L25.6333 16.2384C26.6707 15.6113 27.8038 15.1543 28.9887 14.885C29.1133 14.8567 29.2245 14.7877 29.3043 14.689C29.3841 14.5903 29.4278 14.4678 29.4283 14.3414V14.0664L29.7932 10.8268H33.2883L33.6509 14.0675V14.336C33.6514 14.4624 33.6952 14.5849 33.775 14.6835C33.8548 14.7822 33.966 14.8513 34.0906 14.8795C35.3092 15.1601 36.4754 15.6293 37.546 16.2699C37.6508 16.3329 37.7733 16.3607 37.8953 16.3491C38.0173 16.3376 38.1323 16.2873 38.2231 16.2058L40.9927 13.9946L43.4634 16.4384L41.3862 19.0127L41.3785 19.0225L41.1927 19.2627C41.1071 19.3907 41.0752 19.5467 41.1037 19.6976C41.1217 19.7985 41.1656 19.8932 41.2312 19.9726C41.8509 20.9729 42.3072 22.0636 42.5831 23.2045C42.6113 23.3265 42.68 23.4356 42.7782 23.5144C42.8764 23.5932 42.9985 23.6372 43.1249 23.6394H43.3975L46.7079 24.0036V27.4595L43.4107 27.8225L43.1238 27.8497C43.0051 27.8612 42.8932 27.9094 42.8038 27.9875C42.7144 28.0656 42.6522 28.1695 42.6259 28.2846C42.3518 29.5013 41.8733 30.664 41.2103 31.7242C41.1425 31.8323 41.114 31.9601 41.1296 32.0864C41.1452 32.2127 41.2039 32.33 41.2961 32.4188L41.4818 32.5982L43.5404 35.1442L41.0653 37.588Z"/>
</mask>
<path d="M42.394 31.9351C42.9398 30.9891 43.3557 29.9753 43.6305 28.9205L47.3365 28.5129C47.4751 28.4978 47.6031 28.4327 47.696 28.33C47.7889 28.2272 47.8402 28.0941 47.8399 27.9563V23.4991C47.8402 23.3613 47.7889 23.2282 47.696 23.1255C47.6031 23.0227 47.4751 22.9576 47.3365 22.9426L43.5766 22.5316C43.2935 21.5143 42.8782 20.5376 42.3413 19.6258L44.6669 16.7493C44.7539 16.6417 44.7978 16.5062 44.7901 16.3686C44.7824 16.231 44.7237 16.101 44.6251 16.0036L41.4378 12.851C41.339 12.7537 41.2075 12.6957 41.0683 12.6881C40.929 12.6804 40.7918 12.7237 40.6828 12.8097L37.779 15.1089C36.8314 14.5835 35.8218 14.176 34.7731 13.8957L34.3576 10.1996C34.3425 10.0625 34.2766 9.93588 34.1727 9.84397C34.0689 9.75206 33.9343 9.70138 33.7949 9.70166H29.2888C29.1493 9.70159 29.0148 9.75232 28.9108 9.84416C28.8068 9.936 28.7406 10.0625 28.7249 10.1996L28.3106 13.8957C27.2487 14.1769 26.2294 14.5966 25.2794 15.1437L22.3306 12.8075C22.2215 12.7216 22.0843 12.6783 21.9451 12.6859C21.8058 12.6935 21.6743 12.7515 21.5755 12.8488L18.3882 16.0014C18.2897 16.0988 18.2309 16.2288 18.2232 16.3664C18.2155 16.504 18.2594 16.6396 18.3464 16.7472L20.7127 19.6736C20.1665 20.5987 19.7495 21.5926 19.473 22.6284L15.7428 23.0393C15.6041 23.0543 15.4759 23.1194 15.3828 23.2221C15.2897 23.3248 15.2383 23.4579 15.2383 23.5959V28.053C15.2383 28.1908 15.2898 28.3238 15.3829 28.4264C15.4761 28.5289 15.6042 28.5938 15.7428 28.6085L19.473 29.0194C19.747 30.0557 20.1626 31.0501 20.7083 31.9753L18.342 34.9028C18.255 35.0104 18.2111 35.146 18.2188 35.2836C18.2265 35.4212 18.2853 35.5512 18.3838 35.6486L21.5711 38.8012C21.6698 38.8987 21.8014 38.9569 21.9407 38.9645C22.08 38.9721 22.2172 38.9287 22.3262 38.8425L25.2739 36.5107C26.2243 37.0571 27.244 37.4761 28.3062 37.7565L28.7205 41.4526C28.7362 41.5897 28.8024 41.7162 28.9064 41.808C29.0104 41.8999 29.1449 41.9506 29.2844 41.9505H33.7905C33.9299 41.9508 34.0645 41.9001 34.1683 41.8082C34.2722 41.7163 34.3381 41.5897 34.3533 41.4526L34.7687 37.7565C35.8512 37.4715 36.8897 37.0429 37.856 36.4824L40.7531 38.774C40.8619 38.8601 40.999 38.9035 41.1381 38.8959C41.2772 38.8883 41.4086 38.8302 41.5071 38.7327L44.6944 35.5801C44.7927 35.4826 44.8513 35.3526 44.859 35.2151C44.8667 35.0776 44.823 34.942 44.7361 34.8344L42.394 31.9351ZM41.0653 37.588L38.5088 35.566L38.3802 35.4138C38.2915 35.3096 38.1674 35.2411 38.0312 35.221C37.895 35.201 37.7561 35.2309 37.6406 35.3051C36.551 35.9911 35.3501 36.4865 34.0906 36.7694C33.966 36.7976 33.8548 36.8667 33.775 36.9654C33.6952 37.0641 33.6514 37.1866 33.6509 37.3129V37.5815L33.2883 40.8308H29.7932L29.4283 37.588V37.3195C29.4278 37.1931 29.3841 37.0706 29.3043 36.9719C29.2245 36.8732 29.1133 36.8041 28.9887 36.7759L28.8854 36.752C27.6967 36.471 26.5623 36.0003 25.5266 35.3583C25.426 35.2964 25.3083 35.2671 25.19 35.2747C25.0718 35.2823 24.9589 35.3264 24.8672 35.4007L22.0184 37.6619L19.5466 35.2105L21.6348 32.6297L21.847 32.3568C21.9169 32.2666 21.9574 32.1575 21.9633 32.0439C21.9692 31.9304 21.9401 31.8178 21.8799 31.7209C21.2341 30.7022 20.7652 29.5837 20.4929 28.4118C20.4688 28.3067 20.4144 28.2108 20.3364 28.1355C20.2584 28.0603 20.1601 28.009 20.0533 27.9878L19.6873 27.9182L16.378 27.5529V24.0971L19.7192 23.7285L20.0335 23.6763C20.144 23.6578 20.2464 23.6073 20.328 23.5313C20.4095 23.4553 20.4665 23.3571 20.4918 23.2491C20.7641 22.0731 21.2337 20.9505 21.881 19.928C21.9419 19.8309 21.9712 19.7177 21.9651 19.6037C21.959 19.4896 21.9178 19.3801 21.847 19.2899L19.5499 16.4395L22.0206 13.9957L24.6034 16.0449L24.8606 16.2623C24.956 16.3429 25.0758 16.3898 25.2012 16.3957C25.3265 16.4016 25.4503 16.3662 25.553 16.2949L25.6333 16.2384C26.6707 15.6113 27.8038 15.1543 28.9887 14.885C29.1133 14.8567 29.2245 14.7877 29.3043 14.689C29.3841 14.5903 29.4278 14.4678 29.4283 14.3414V14.0664L29.7932 10.8268H33.2883L33.6509 14.0675V14.336C33.6514 14.4624 33.6952 14.5849 33.775 14.6835C33.8548 14.7822 33.966 14.8513 34.0906 14.8795C35.3092 15.1601 36.4754 15.6293 37.546 16.2699C37.6508 16.3329 37.7733 16.3607 37.8953 16.3491C38.0173 16.3376 38.1323 16.2873 38.2231 16.2058L40.9927 13.9946L43.4634 16.4384L41.3862 19.0127L41.3785 19.0225L41.1927 19.2627C41.1071 19.3907 41.0752 19.5467 41.1037 19.6976C41.1217 19.7985 41.1656 19.8932 41.2312 19.9726C41.8509 20.9729 42.3072 22.0636 42.5831 23.2045C42.6113 23.3265 42.68 23.4356 42.7782 23.5144C42.8764 23.5932 42.9985 23.6372 43.1249 23.6394H43.3975L46.7079 24.0036V27.4595L43.4107 27.8225L43.1238 27.8497C43.0051 27.8612 42.8932 27.9094 42.8038 27.9875C42.7144 28.0656 42.6522 28.1695 42.6259 28.2846C42.3518 29.5013 41.8733 30.664 41.2103 31.7242C41.1425 31.8323 41.114 31.9601 41.1296 32.0864C41.1452 32.2127 41.2039 32.33 41.2961 32.4188L41.4818 32.5982L43.5404 35.1442L41.0653 37.588Z" fill="#DA291C" stroke="#DA291C" stroke-width="2" mask="url(#path-2-inside-1_61_89)"/>
<path d="M50.0754 12.5771L49.6295 12.8032C48.4931 10.562 46.6974 8.12199 43.8692 6.24129C41.0443 4.36273 37.1598 3.02246 31.8111 3.02246H31.5385C23.6232 3.08954 17.839 5.2329 14.2259 9.29371C9.47681 14.6316 9.75152 21.9345 10.1107 24.8724L10.1109 24.874C10.2229 25.8165 10.0474 26.7703 9.60748 27.6128C9.60729 27.6131 9.6071 27.6135 9.60691 27.6138L5.89664 34.7993C5.76999 35.045 5.69762 35.3142 5.68409 35.5891C5.67056 35.8641 5.71615 36.1388 5.81801 36.3954L5.35397 36.5796L5.81801 36.3954C5.91987 36.6519 6.07577 36.8846 6.27575 37.0778L5.92833 37.4373L6.27575 37.0778C6.4756 37.2709 6.71492 37.4202 6.97807 37.5155L50.0754 12.5771ZM50.0754 12.5771L49.6295 12.8032C52.1645 17.8022 52.6522 23.9482 51.7494 29.8535C50.8466 35.7581 48.5618 41.3654 45.6196 45.2662L45.5188 45.3999V45.5673V52.9259C45.5188 52.94 45.5132 52.9546 45.5014 52.9663C45.4894 52.9781 45.472 52.9857 45.4528 52.9857C45.4335 52.9857 45.4161 52.9781 45.4041 52.9663C45.3923 52.9546 45.3867 52.94 45.3867 52.9259L45.3867 45.3825L45.3867 45.3786M50.0754 12.5771L45.3867 45.3786M26.1136 47.4936C26.1748 47.5459 26.2239 47.6107 26.2575 47.6835C26.291 47.7563 26.3083 47.8354 26.3081 47.9154L26.1136 47.4936ZM26.1136 47.4936C26.0525 47.4412 25.9808 47.4023 25.9033 47.3794C25.8258 47.3565 25.7442 47.3503 25.6641 47.361L26.1136 47.4936ZM45.3867 45.3786C45.3866 45.3659 45.3903 45.353 45.3981 45.3415C48.4043 41.4228 50.6634 35.7535 51.5616 29.8607C52.4601 23.9664 52.0068 17.7817 49.5091 12.8564C46.2403 6.41018 39.9985 3.07246 31.5421 3.14654L45.3867 45.3786ZM10.3456 38.7298L6.97864 37.5157L31.5419 3.14654C23.8079 3.21136 17.976 5.27107 14.3295 9.37151C9.57777 14.7128 9.8996 22.0193 10.2434 24.863C10.3569 25.826 10.178 26.8009 9.72915 27.6635L9.72835 27.6651L6.02229 34.8497L6.46666 35.079L6.02228 34.8498C5.90306 35.0809 5.83466 35.3347 5.82182 35.5944C5.80898 35.8541 5.85202 36.1134 5.94794 36.3551C6.04386 36.5968 6.19037 36.8152 6.37747 36.9961C6.56455 37.1769 6.78795 37.3161 7.03277 37.4048L7.03302 37.4048L10.3991 38.6219C10.3996 38.622 10.4 38.6222 10.4004 38.6223C10.903 38.806 11.346 39.1192 11.6838 39.5287C12.0219 39.9385 12.2424 40.4299 12.3229 40.9517L12.323 40.9522L12.9967 45.2864L12.997 45.2883C13.1772 46.4197 13.7986 47.4346 14.7258 48.116L15.0219 47.7131L14.7258 48.116C15.6527 48.7972 16.8118 49.0912 17.9544 48.936L17.9558 48.9358L25.7305 47.8566C25.7307 47.8566 25.7308 47.8565 25.731 47.8565C25.7414 47.8552 25.7519 47.8561 25.7618 47.859C25.7718 47.8619 25.7807 47.8669 25.788 47.8731L25.7888 47.8738C25.7954 47.8794 25.8002 47.886 25.8034 47.8929C25.8066 47.8998 25.8081 47.907 25.8081 47.9142V47.9154V52.9237C25.8081 52.9378 25.8025 52.9525 25.7907 52.9641C25.7787 52.976 25.7614 52.9836 25.7421 52.9836C25.7228 52.9836 25.7054 52.976 25.6935 52.9641C25.6817 52.9525 25.6761 52.9378 25.6761 52.9237V48.5601V47.9858L25.1072 48.0649L17.9769 49.0561C17.9766 49.0561 17.9763 49.0562 17.9759 49.0562C16.7955 49.2163 15.5993 48.912 14.6443 48.2099C13.6895 47.5078 13.0525 46.4645 12.8681 45.3049C12.868 45.3046 12.868 45.3043 12.868 45.3041L12.1958 40.9728C12.1957 40.9725 12.1957 40.9723 12.1957 40.9721C12.1185 40.4676 11.9058 39.9935 11.5803 39.5992C11.2547 39.2048 10.8284 38.9048 10.3464 38.7301L10.3456 38.7298Z" fill="#DA291C" stroke="#DA291C"/>
</svg>
