<svg width="718" height="190" viewBox="0 0 718 190" fill="none" xmlns="http://www.w3.org/2000/svg">
<path d="M293.078 75.9662H303.493L305.109 71.7289H294.694L293.078 75.9662ZM308.162 89.1462H298.429L301.266 81.7116H290.851L288.014 89.1462H278.282L285.859 69.3942L283.058 65.9462H317.067L308.162 89.1462Z" fill="#231F20"/>
<path d="M318.612 65.9462H332.475L325.759 83.3996H336.173L342.889 65.9462H352.621L343.715 89.1462H313.836L321.413 69.3942L318.612 65.9462Z" fill="#231F20"/>
<path d="M354.201 65.9462H386.667L384.44 71.7289H374.887L368.208 89.1462H358.475L365.155 71.7289H358.655L354.201 65.9462Z" fill="#231F20"/>
<path d="M399.882 71.7284L395.393 83.4004H405.808L410.297 71.7284H399.882ZM391.048 69.3938L388.246 65.9458H422.256L413.349 89.1458H383.47L391.048 69.3938Z" fill="#231F20"/>
<path d="M462.406 59.554L463.376 62.534L466.644 59.554H474.365L469.625 64.0073H456.121L454.721 59.554H462.406ZM473.79 74.6727L468.224 89.146H438.381L440.572 83.4007H460.682L461.832 80.4193H441.721L445.958 69.394L443.157 65.946H477.13L474.904 71.7287H454.793L453.68 74.6727H473.79Z" fill="#231F20"/>
<path d="M478.71 65.9462H492.573L489.233 74.6729H494.332L501.264 70.4716L502.988 65.9462H512.72L509.846 73.4516L503.022 77.5822L506.65 81.6396L503.777 89.1462H494.045L495.769 84.6209L492.141 80.4196H487.006L483.666 89.1462H473.934L481.512 69.3942L478.71 65.9462Z" fill="#231F20"/>
<path d="M525.935 71.7284L521.446 83.4004H531.861L536.35 71.7284H525.935ZM517.101 69.3938L514.299 65.9458H548.309L539.402 89.1458H509.523L517.101 69.3938Z" fill="#231F20"/>
<path d="M557.036 83.4002H575.638L573.448 89.1455H545.113L552.69 69.3935L549.889 65.9468H563.752L557.036 83.4002Z" fill="#231F20"/>
<path d="M592.697 75.9662H603.112L604.728 71.7289H594.313L592.697 75.9662ZM607.78 89.1462H598.048L600.885 81.7116H590.471L587.633 89.1462H577.901L585.479 69.3942L582.677 65.9462H616.687L607.78 89.1462Z" fill="#231F20"/>
<path d="M222.14 114.978H208.831L211.883 105.21L218.721 98.1889H221.041L218.904 105.21H225.192L222.14 114.978ZM206.877 115.04H193.568L196.499 105.27L203.459 98.2502H205.779L203.58 105.27H209.868L206.877 115.04Z" fill="#231F20"/>
<path d="M231.603 104.05L227.756 98.1887H246.622L234.534 137.629H221.286L231.603 104.05Z" fill="#231F20"/>
<path d="M252.604 104.05L248.758 98.1887H267.44L276.354 115.833L281.787 98.1887H295.035L282.947 137.629H269.882L260.968 119.985L255.535 137.629H242.287L252.604 104.05Z" fill="#231F20"/>
<path d="M331.3 137.628H290.701L293.692 127.86H321.044L322.569 122.792H295.219L301.019 104.05L297.172 98.1884H343.388L340.397 108.018H313.045L311.519 113.024H338.871L331.3 137.628Z" fill="#231F20"/>
<path d="M351.63 108.018L345.524 98.1889H389.726L386.674 108.018H373.67L364.572 137.629H351.386L360.422 108.018H351.63Z" fill="#231F20"/>
<path d="M407.675 108.018L405.721 114.185H419.885L421.839 108.018H407.675ZM438.079 98.1889L430.141 123.953H422.876L425.929 137.629H412.62L409.384 123.953H402.791L398.577 137.629H385.329L395.648 104.05L391.801 98.1889H438.079Z" fill="#231F20"/>
<path d="M444 104.05L440.153 98.1887H459.019L449.921 127.859H464.085L473.183 98.1887H486.431L474.343 137.629H433.683L444 104.05Z" fill="#231F20"/>
<path d="M492.414 104.05L488.567 98.1887H507.433L502.915 113.025H509.814L519.277 105.882L521.597 98.1887H534.845L530.938 110.949L521.658 117.97L526.603 124.869L522.695 137.629H509.447L511.767 129.935L506.883 122.793H499.862L495.345 137.629H482.097L492.414 104.05Z" fill="#231F20"/>
<path d="M543.087 108.018L536.982 98.1889H581.183L578.131 108.018H565.127L556.03 137.629H542.843L551.879 108.018H543.087Z" fill="#231F20"/>
<path d="M593.027 127.86H607.191L613.296 108.019H599.132L593.027 127.86ZM583.259 98.1893H629.536L617.448 137.628H576.787L587.106 104.051L583.259 98.1893Z" fill="#231F20"/>
<path d="M647.546 108.018L645.593 114.185H659.757L661.71 108.018H647.546ZM677.95 98.1889L670.013 123.953H662.749L665.801 137.629H652.491L649.255 123.953H642.662L638.45 137.629H625.201L635.519 104.05L631.673 98.1889H677.95Z" fill="#231F20"/>
<path d="M697.058 98.1886H710.368L707.376 107.957L700.477 114.978H698.157L700.356 107.957H694.068L697.058 98.1886ZM681.734 98.25H695.105L692.052 108.018L685.153 115.039H682.894L685.032 108.018H678.744L681.734 98.25Z" fill="#231F20"/>
<path d="M58.9528 142.785L33.7355 138.964L50.0048 144.56L58.9461 142.8L58.9528 142.785Z" fill="#231F20"/>
<path d="M149.318 57.6735H133.615L99.7629 131.949H116.898L108.531 150.303H58.5376H55.5269H27.7923L68.2829 155.951L97.8683 185.536L188.594 94.8121L149.318 57.6735Z" fill="#231F20"/>
<path d="M39.0745 125.128L79.2399 122.101L29.7345 115.544L84.1559 111.221L26.8252 103.805L89.3345 99.4862L30.0919 91.5556L94.5599 87.8756L37.3572 80.9396L100.107 76.6769L45.3825 69.5076L104.835 65.6516L52.1105 58.0742L97.0625 54.2769L59.0199 49.6369L102.664 45.6143L64.3892 39.3209H106.107H158.023L126.52 32.6236L97.8692 4.08759L7.14387 94.8116L46.3479 134.441L66.5465 131.156L39.0745 125.128Z" fill="#BF1B2C"/>
</svg>
