<svg width="57" height="56" viewBox="0 0 57 56" fill="none" xmlns="http://www.w3.org/2000/svg">
<path d="M54.0558 49.7071C54.0561 48.1585 53.5923 46.6446 52.7229 45.3566C51.8535 44.0687 50.6176 43.0647 49.1713 42.4714L39.667 38.5752C38.9423 38.2808 38.3229 37.7793 37.8878 37.1348C37.4528 36.4904 37.2219 35.7323 37.2247 34.9574V30.332L40.2409 27.3487C40.6111 26.984 40.9042 26.5502 41.1032 26.0724C41.3022 25.5946 41.4032 25.0824 41.4001 24.5657V15.432C41.4001 12.1106 40.0662 8.92518 37.6917 6.57659C35.3173 4.228 32.0969 2.90857 28.7389 2.90857C25.3809 2.90857 22.1605 4.228 19.786 6.57659C17.4116 8.92518 16.0776 12.1106 16.0776 15.432V24.5824C16.0746 25.0991 16.1756 25.6113 16.3746 26.0891C16.5736 26.5669 16.8667 27.0007 17.2369 27.3654L20.253 30.3487V34.9796C20.2558 35.7545 20.025 36.5126 19.59 37.1571C19.1549 37.8015 18.5355 38.303 17.8108 38.5975L8.30645 42.4937C6.86165 43.0837 5.62577 44.0836 4.75455 45.3673C3.88333 46.651 3.41576 48.161 3.41077 49.7071V53.0133H54.0558V49.7071ZM17.6533 24.5824V15.4375C17.7185 12.5744 18.9142 9.85032 20.9845 7.84823C23.0548 5.84614 25.8351 4.72513 28.7305 4.72513C31.6258 4.72513 34.4061 5.84614 36.4764 7.84823C38.5467 9.85032 39.7424 12.5744 39.8076 15.4375V24.5824C39.8095 24.8927 39.7487 25.2001 39.6289 25.4869C39.5091 25.7736 39.3326 26.0338 39.1099 26.2522L33.5164 31.7848C33.2956 32.0051 33.0325 32.1796 32.7426 32.2981C32.4528 32.4166 32.1419 32.4767 31.8282 32.4749H25.6214C25.3078 32.4767 24.9969 32.4166 24.707 32.2981C24.4171 32.1796 24.1541 32.0051 23.9332 31.7848L18.3398 26.2522C18.1191 26.0328 17.9447 25.7722 17.8268 25.4856C17.709 25.1989 17.65 24.8919 17.6533 24.5824ZM52.4745 51.4493H4.99202V51.2712V49.7071C4.9934 48.4689 5.36561 47.2588 6.06165 46.2295C6.75769 45.2003 7.74638 44.3981 8.90294 43.9241L18.4073 40.0279C19.4192 39.6133 20.2841 38.9115 20.8931 38.011C21.502 37.1105 21.8276 36.0518 21.8287 34.9685V31.9016L22.8247 32.8868C23.1934 33.2529 23.632 33.5429 24.115 33.7397C24.5981 33.9366 25.1159 34.0364 25.6383 34.0334H31.8451C32.3675 34.0364 32.8853 33.9366 33.3684 33.7397C33.8514 33.5429 34.2901 33.2529 34.6587 32.8868L35.6547 31.9016V34.9685C35.6547 36.0528 35.9798 37.1127 36.5888 38.0142C37.1978 38.9158 38.0634 39.6185 39.0761 40.0335L48.5805 43.9297C49.737 44.4036 50.7257 45.2059 51.4218 46.2351C52.1178 47.2643 52.49 48.4744 52.4914 49.7127V51.2767L52.4745 51.4493Z" fill="#DA291C"/>
</svg>
