<svg width="37" height="26" viewBox="0 0 37 26" fill="none" xmlns="http://www.w3.org/2000/svg">
<g clip-path="url(#clip0_91_56)">
<path d="M20.3448 7.07213C20.3448 5.09529 21.0801 3.51122 22.553 2.31991C24.0259 1.12759 25.8599 0.531433 28.0481 0.531433C30.844 0.531433 33.0334 1.33199 34.6196 2.9331C36.2058 4.5332 37 6.66334 37 9.3205C37 12.0448 36.5291 14.3623 35.5838 16.27C34.6396 18.1767 33.5077 19.7598 32.1836 21.0222C30.864 22.2827 29.4844 23.2706 28.0481 23.986C26.6141 24.7014 25.3678 25.2274 24.3103 25.5701L20.6836 20.0513C22.1942 19.5053 23.4794 18.6366 24.5358 17.4443C25.5944 16.252 26.1975 14.9745 26.3497 13.6128C24.8402 13.6128 23.4594 13.0147 22.2131 11.8234C20.9668 10.631 20.3448 9.04697 20.3448 7.07213ZM0.742554 7.07213C0.742554 5.09529 1.47901 3.51122 2.95193 2.31991C4.42484 1.12659 6.25765 0.531433 8.44703 0.531433C11.244 0.531433 13.4323 1.33199 15.0185 2.9331C16.6058 4.5332 17.3989 6.66334 17.3989 9.3205C17.3989 12.0448 16.928 14.3623 15.9827 16.27C15.0385 18.1767 13.9066 19.7598 12.5836 21.0222C11.264 22.2827 9.88329 23.2706 8.44703 23.986C7.01299 24.7014 5.76779 25.2274 4.7092 25.5701L1.08357 20.0513C2.59425 19.5053 3.87833 18.6366 4.9347 17.4443C5.99328 16.252 6.59756 14.9745 6.74862 13.6128C5.23905 13.6128 3.85834 13.0147 2.61313 11.8234C1.36571 10.631 0.742554 9.04697 0.742554 7.07213Z" fill="#DA291C"/>
</g>
<defs>
<clipPath id="clip0_91_56">
<rect width="36.6562" height="25.0486" fill="white" transform="translate(0.34375 0.521423)"/>
</clipPath>
</defs>
</svg>
