<svg width="38" height="38" viewBox="0 0 38 38" fill="none" xmlns="http://www.w3.org/2000/svg">
<g clip-path="url(#clip0_867_18390)">
<path d="M14.25 17.4166C14.25 18.6764 14.7504 19.8846 15.6412 20.7754C16.532 21.6662 17.7402 22.1666 19 22.1666C20.2598 22.1666 21.468 21.6662 22.3588 20.7754C23.2496 19.8846 23.75 18.6764 23.75 17.4166C23.75 16.1568 23.2496 14.9487 22.3588 14.0579C21.468 13.1671 20.2598 12.6666 19 12.6666C17.7402 12.6666 16.532 13.1671 15.6412 14.0579C14.7504 14.9487 14.25 16.1568 14.25 17.4166Z" stroke="#DA291C" stroke-width="1.25" stroke-linecap="round" stroke-linejoin="round"/>
<path d="M27.9571 26.3736L21.239 33.0917C20.6452 33.6849 19.8403 34.0181 19.001 34.0181C18.1617 34.0181 17.3567 33.6849 16.7629 33.0917L10.0433 26.3736C8.27185 24.6021 7.06553 22.3451 6.57684 19.8881C6.08815 17.431 6.33903 14.8842 7.29776 12.5697C8.25649 10.2552 9.88001 8.27696 11.963 6.88516C14.046 5.49336 16.495 4.75049 19.0002 4.75049C21.5054 4.75049 23.9543 5.49336 26.0373 6.88516C28.1203 8.27696 29.7439 10.2552 30.7026 12.5697C31.6613 14.8842 31.9122 17.431 31.4235 19.8881C30.9348 22.3451 29.7285 24.6021 27.9571 26.3736Z" stroke="#DA291C" stroke-width="1.25" stroke-linecap="round" stroke-linejoin="round"/>
</g>
<defs>
<clipPath id="clip0_867_18390">
<rect width="38" height="38" fill="white"/>
</clipPath>
</defs>
</svg>
