<svg width="57" height="56" viewBox="0 0 57 56" fill="none" xmlns="http://www.w3.org/2000/svg">
<g clip-path="url(#clip0_64_172)">
<path d="M28.7333 0L27.1506 1.11971L25.5295 2.1579L23.8479 3.12542L22.1334 4.01684L20.3749 4.82673L18.5779 5.55509L16.7534 6.20735L14.9015 6.77264L13.0276 7.25096L11.1262 7.64776L9.20834 7.95214L7.28498 8.16956L5.35062 8.30545L3.41077 8.34894L3.45473 10.6699L3.59761 12.9854L3.83391 15.2955L4.16912 17.5947L4.59776 19.8776L5.11432 22.1388L5.7243 24.3782L6.42771 26.5905L7.21903 28.7756L8.10378 30.928L9.07646 33.0424L10.1316 35.1134L11.2691 37.1462L12.4891 39.1248L13.7915 41.0544L15.1763 42.9351L16.6325 44.7559L18.1602 46.5116L19.7594 48.2075L21.43 49.8436L23.1665 51.4036L24.9635 52.8983L26.8209 54.317L28.7333 55.6596L30.6456 54.317L32.5031 52.8983L34.3 51.4036L36.0366 49.8436L37.7071 48.2075L39.3063 46.5116L40.834 44.7559L42.2903 42.9351L43.6696 41.0544L44.972 39.1248L46.1974 37.1462L47.335 35.1134L48.3901 33.0424L49.3628 30.928L50.242 28.7756L51.0333 26.5905L51.7367 24.3782L52.3522 22.1388L52.8743 19.8776L53.2974 17.5947L53.6326 15.2955L53.8689 12.9854L54.0118 10.6699L54.0558 8.34894L52.1159 8.30545L50.1816 8.16956L48.2582 7.95214L46.3403 7.64776L44.4389 7.25096L42.565 6.77264L40.7131 6.20735L38.8831 5.55509L37.0917 4.82673L35.3332 4.01684L33.6131 3.12542L31.937 2.1579L30.3104 1.11971L28.7333 0ZM28.7333 3.41893L30.4148 4.49516L32.1404 5.4953L33.9044 6.42477L35.7178 7.27271L37.5588 8.03368L39.4382 8.71855L41.3451 9.32189L43.2794 9.83283L45.2303 10.2677L47.1976 10.6101L49.1814 10.871L51.1762 11.0449L51.0223 13.2355L50.7751 15.4205L50.4453 17.6002L50.0222 19.7581L49.5111 21.8996L48.9121 24.0195L48.2307 26.1067L47.4669 28.1722L46.6096 30.2051L45.6809 32.1999L44.6642 34.1567L43.5707 36.07L42.3947 37.9398L41.1527 39.7662L39.8338 41.5327L38.4435 43.2503L36.9818 44.9081L35.4541 46.5062L33.8659 48.0444L32.2118 49.512L30.4973 50.9198L28.7333 52.2569L26.9693 50.9198L25.2547 49.512L23.6061 48.0444L22.0125 46.5062L20.4848 44.9081L19.023 43.2503L17.6382 41.5327L16.3138 39.7662L15.0719 37.9398L13.8959 36.07L12.8023 34.1567L11.7912 32.1999L10.8514 30.2051L10.0052 28.1722L9.23582 26.1067L8.5544 24.0195L7.95541 21.8996L7.44434 19.7581L7.0212 17.6002L6.69148 15.4205L6.44419 13.2355L6.29032 11.0449L8.27963 10.871L10.2634 10.6101L12.2363 10.2677L14.1926 9.83283L16.1215 9.32189L18.0284 8.71855L19.9078 8.03368L21.7487 7.27271L23.5622 6.42477L25.3317 5.4953L27.0517 4.49516L28.7333 3.41893ZM40.0097 18.0785C39.6446 18.0885 39.2978 18.2386 39.0425 18.497L25.9691 31.4281L21.3365 26.846C20.0106 25.4801 17.9663 27.5021 19.3472 28.8136L24.9745 34.3796C25.5239 34.9228 26.4144 34.9228 26.9638 34.3796L41.0318 20.4647C41.947 19.5797 41.2891 18.0438 40.0097 18.0785Z" fill="#DA291C"/>
</g>
<defs>
<clipPath id="clip0_64_172">
<rect width="56.2722" height="55.6596" fill="white" transform="translate(0.597168)"/>
</clipPath>
</defs>
</svg>
