<svg width="40" height="40" viewBox="0 0 40 40" fill="none" xmlns="http://www.w3.org/2000/svg">
<path d="M22.44 35C19.8916 35 17.7207 34.11 15.9271 32.33C14.1337 30.5503 13.2371 28.3847 13.2371 25.8333V24.9713C11.1259 24.7746 9.34817 23.8863 7.90373 22.3063C6.45928 20.726 5.73706 18.8461 5.73706 16.6667V7.50001H10.7371V5.83334H12.4037V10.8333H10.7371V9.16668H7.40373V16.6667C7.40373 18.5 8.0565 20.0695 9.36206 21.375C10.6676 22.6806 12.2371 23.3333 14.0704 23.3333C15.9037 23.3333 17.4732 22.6806 18.7787 21.375C20.0843 20.0695 20.7371 18.5 20.7371 16.6667V9.16668H17.4037V10.8333H15.7371V5.83334H17.4037V7.50001H22.4037V16.6667C22.4037 18.8461 21.6815 20.726 20.2371 22.3063C18.7926 23.8863 17.0148 24.7746 14.9037 24.9713V25.8333C14.9037 27.9167 15.6361 29.6875 17.1008 31.1458C18.5653 32.6042 20.3436 33.3333 22.4358 33.3333C24.5191 33.3333 26.29 32.6042 27.7483 31.1458C29.2066 29.6875 29.9358 27.9167 29.9358 25.8333V23.2342C29.1558 23.0503 28.5122 22.64 28.005 22.0033C27.4975 21.3664 27.2437 20.6345 27.2437 19.8075C27.2437 18.8283 27.5868 17.996 28.2729 17.3104C28.9593 16.6249 29.7926 16.2821 30.7729 16.2821C31.7534 16.2821 32.5855 16.6249 33.2691 17.3104C33.953 17.996 34.295 18.8283 34.295 19.8075C34.295 20.6345 34.0412 21.3664 33.5337 22.0033C33.0262 22.64 32.3825 23.0503 31.6025 23.2342V25.8333C31.6025 28.3847 30.7125 30.5503 28.9325 32.33C27.1528 34.11 24.9886 35 22.44 35ZM30.7691 21.6667C31.2841 21.6667 31.7228 21.4856 32.085 21.1233C32.4472 20.7611 32.6283 20.3225 32.6283 19.8075C32.6283 19.2928 32.4472 18.8543 32.085 18.4921C31.7228 18.1299 31.2841 17.9488 30.7691 17.9488C30.2541 17.9488 29.8155 18.1299 29.4533 18.4921C29.0914 18.8543 28.9104 19.2928 28.9104 19.8075C28.9104 20.3225 29.0914 20.7611 29.4533 21.1233C29.8155 21.4856 30.2541 21.6667 30.7691 21.6667Z" fill="#231F20"/>
</svg>
