<svg width="658" height="108" viewBox="0 0 658 108" fill="none" xmlns="http://www.w3.org/2000/svg">
<path d="M129.413 24.8802H142.484L144.512 19.5622H131.442L129.413 24.8802ZM148.344 41.4219H136.129L139.69 32.091H126.619L123.058 41.4219H110.844L120.354 16.632L116.838 12.3046H159.521L148.344 41.4219Z" fill="white"/>
<path d="M161.46 12.3046H178.858L170.429 34.2095H183.5L191.929 12.3046H204.143L192.965 41.4219H155.466L164.976 16.632L161.46 12.3046Z" fill="white"/>
<path d="M206.127 12.3046H246.872L244.077 19.5622H232.087L223.706 41.4219H211.49L219.873 19.5622H211.716L206.127 12.3046Z" fill="white"/>
<path d="M263.457 19.5617L257.823 34.2107H270.894L276.528 19.5617H263.457ZM252.369 16.6315L248.854 12.3041H291.537L280.358 41.4214H242.859L252.369 16.6315Z" fill="white"/>
<path d="M341.927 4.28208L343.143 8.02214L347.245 4.28208H356.936L350.987 9.87125H334.039L332.281 4.28208H341.927ZM356.214 23.2568L349.228 41.4216H311.774L314.523 34.2109H339.763L341.206 30.4692H315.966L321.284 16.6318L317.768 12.3044H360.406L357.612 19.5619H332.372L330.975 23.2568H356.214Z" fill="white"/>
<path d="M362.391 12.3046H379.789L375.597 23.257H381.996L390.696 17.9841L392.86 12.3046H405.074L401.467 21.7242L392.903 26.9084L397.456 32.0006L393.85 41.4219H381.636L383.8 35.7423L379.247 30.4694H372.802L368.611 41.4219H356.396L365.906 16.632L362.391 12.3046Z" fill="white"/>
<path d="M421.658 19.5617L416.024 34.2107H429.095L434.729 19.5617H421.658ZM410.57 16.6315L407.054 12.3041H449.737L438.559 41.4214H401.06L410.57 16.6315Z" fill="white"/>
<path d="M460.689 34.2099H484.036L481.286 41.4207H445.725L455.235 16.6308L451.719 12.305H469.118L460.689 34.2099Z" fill="white"/>
<path d="M505.449 24.8802H518.52L520.548 19.5622H507.477L505.449 24.8802ZM524.378 41.4219H512.164L515.725 32.091H502.654L499.093 41.4219H486.879L496.389 16.632L492.873 12.3046H535.556L524.378 41.4219Z" fill="white"/>
<path d="M40.3835 73.8422H23.6797L27.5101 61.5829L36.0929 52.7708H39.0046L36.3222 61.5829H44.2139L40.3835 73.8422ZM21.2281 73.9192H4.52429L8.20242 61.6582L16.9376 52.8478H19.8493L17.0898 61.6582H24.9816L21.2281 73.9192Z" fill="white"/>
<path d="M52.2597 60.1265L47.432 52.7702H71.1088L55.9379 102.27H39.311L52.2597 60.1265Z" fill="white"/>
<path d="M78.6176 60.1265L73.7898 52.7702H97.2375L108.424 74.9144L115.243 52.7702H131.87L116.699 102.27H100.302L89.1148 80.1253L82.2957 102.27H65.6688L78.6176 60.1265Z" fill="white"/>
<path d="M177.384 102.269H126.431L130.184 90.0097H164.512L166.427 83.649H132.1L139.38 60.126L134.552 52.7697H192.555L188.802 65.106H154.474L152.558 71.3897H186.886L177.384 102.269Z" fill="white"/>
<path d="M202.898 65.1068L195.235 52.7704H250.71L246.879 65.1068H230.559L219.141 102.27H202.591L213.932 65.1068H202.898Z" fill="white"/>
<path d="M273.238 65.1068L270.786 72.8463H288.562L291.014 65.1068H273.238ZM311.396 52.7704L301.434 85.1056H292.316L296.148 102.27H279.444L275.383 85.1056H267.108L261.82 102.27H245.193L258.144 60.1267L253.316 52.7704H311.396Z" fill="white"/>
<path d="M318.825 60.1265L313.997 52.7702H337.674L326.256 90.0085H344.033L355.451 52.7702H372.078L356.906 102.27H305.876L318.825 60.1265Z" fill="white"/>
<path d="M379.585 60.1265L374.757 52.7702H398.434L392.765 71.3902H401.423L413.299 62.4257L416.211 52.7702H432.838L427.935 68.7847L416.288 77.5968L422.494 86.255L417.59 102.27H400.963L403.874 92.614L397.745 83.6495H388.933L383.263 102.27H366.636L379.585 60.1265Z" fill="white"/>
<path d="M443.184 65.1068L435.522 52.7704H490.997L487.166 65.1068H470.846L459.428 102.27H442.878L454.219 65.1068H443.184Z" fill="white"/>
<path d="M505.862 90.009H523.639L531.301 65.1072H513.525L505.862 90.009ZM493.603 52.771H551.683L536.512 102.268H485.48L498.431 60.1272L493.603 52.771Z" fill="white"/>
<path d="M574.286 65.1068L571.834 72.8463H589.611L592.062 65.1068H574.286ZM612.444 52.7704L602.483 85.1056H593.366L597.196 102.27H580.492L576.431 85.1056H568.156L562.87 102.27H546.241L559.192 60.1267L554.364 52.7704H612.444Z" fill="white"/>
<path d="M636.421 52.7705H653.124L649.369 65.0299L640.711 73.842H637.799L640.559 65.0299H632.667L636.421 52.7705ZM617.188 52.8475H633.969L630.137 65.1068L621.479 73.9189H618.644L621.327 65.1068H613.435L617.188 52.8475Z" fill="white"/>
</svg>
