<svg width="42" height="43" viewBox="0 0 42 43" fill="none" xmlns="http://www.w3.org/2000/svg">
<g clip-path="url(#clip0_91_61)">
<path d="M21 41.9113C32.1341 41.9113 41.16 32.8678 41.16 21.712C41.16 10.5563 32.1341 1.51282 21 1.51282C9.86597 1.51282 0.840027 10.5563 0.840027 21.712C0.840027 32.8678 9.86597 41.9113 21 41.9113Z" stroke="#231F20" stroke-width="2" stroke-miterlimit="10" stroke-linecap="round"/>
<path d="M25.1437 30.5728C25.0211 29.2161 25.0681 28.2692 25.0681 27.0295C25.6813 26.7072 26.78 24.6519 26.9657 22.9156C27.4478 22.876 28.208 22.4047 28.4306 20.5439C28.5508 19.5449 28.0736 18.9826 27.783 18.8059C28.5676 16.4417 30.1972 9.12795 24.7691 8.37216C24.2105 7.38913 22.78 6.89172 20.921 6.89172C13.4837 7.02891 12.5866 12.5189 14.217 18.8059C13.9272 18.9826 13.4501 19.5449 13.5694 20.5439C13.7928 22.4047 14.5522 22.876 15.0343 22.9156C15.2191 24.651 16.3615 26.7072 16.9764 27.0295C16.9764 28.2692 17.0226 29.2161 16.9 30.5728C15.8407 33.4259 10.4009 33.649 7.26263 36.4003C10.5437 39.7104 15.8609 42.0779 21.4721 42.0779C27.0833 42.0779 33.679 37.6391 34.7768 36.428C31.6579 33.6515 26.2055 33.436 25.1437 30.5728Z" stroke="#231F20" stroke-width="2" stroke-miterlimit="10" stroke-linecap="round"/>
</g>
<defs>
<clipPath id="clip0_91_61">
<rect width="42" height="42.0817" fill="white" transform="translate(0 0.671204)"/>
</clipPath>
</defs>
</svg>
