<svg width="74" height="74" viewBox="0 0 74 74" fill="none" xmlns="http://www.w3.org/2000/svg">
<g clip-path="url(#clip0_1071_1422)">
<path d="M9.25 64.75L14.3375 53.0333C10.4453 47.5081 8.70322 40.7525 9.43822 34.0341C10.1732 27.3158 13.3348 21.0966 18.3295 16.5437C23.3243 11.9907 29.8089 9.41712 36.5664 9.30577C43.324 9.19442 49.8899 11.553 55.0319 15.9389C60.174 20.3247 63.5387 26.4364 64.4946 33.1269C65.4506 39.8174 63.932 46.6268 60.224 52.2772C56.5159 57.9276 50.8733 62.0305 44.355 63.816C37.8366 65.6016 30.8908 64.9469 24.8208 61.975L9.25 64.75Z" fill="#0A5C36" stroke="white" stroke-width="1.25" stroke-linecap="round" stroke-linejoin="round"/>
<path d="M27.75 30.8333C27.75 31.2421 27.9124 31.6343 28.2015 31.9234C28.4907 32.2125 28.8828 32.3749 29.2917 32.3749C29.7005 32.3749 30.0927 32.2125 30.3818 31.9234C30.6709 31.6343 30.8333 31.2421 30.8333 30.8333V27.7499C30.8333 27.341 30.6709 26.9489 30.3818 26.6598C30.0927 26.3707 29.7005 26.2083 29.2917 26.2083C28.8828 26.2083 28.4907 26.3707 28.2015 26.6598C27.9124 26.9489 27.75 27.341 27.75 27.7499V30.8333ZM27.75 30.8333C27.75 34.922 29.3743 38.8433 32.2654 41.7345C35.1566 44.6257 39.0779 46.2499 43.1667 46.2499M43.1667 46.2499H46.25C46.6589 46.2499 47.051 46.0875 47.3401 45.7984C47.6292 45.5093 47.7917 45.1171 47.7917 44.7083C47.7917 44.2994 47.6292 43.9073 47.3401 43.6181C47.051 43.329 46.6589 43.1666 46.25 43.1666H43.1667C42.7578 43.1666 42.3657 43.329 42.0765 43.6181C41.7874 43.9073 41.625 44.2994 41.625 44.7083C41.625 45.1171 41.7874 45.5093 42.0765 45.7984C42.3657 46.0875 42.7578 46.2499 43.1667 46.2499Z" stroke="white" stroke-width="1.25" stroke-linecap="round" stroke-linejoin="round"/>
</g>
<defs>
<clipPath id="clip0_1071_1422">
<rect width="74" height="74" fill="white"/>
</clipPath>
</defs>
</svg>
