<svg width="30" height="30" viewBox="0 0 30 30" fill="none" xmlns="http://www.w3.org/2000/svg">
<rect width="30" height="30" fill="white"/>
<path d="M2.81249 27.6563C2.73796 27.6565 2.66445 27.6389 2.59807 27.605C2.53169 27.5711 2.47436 27.5218 2.43082 27.4613C2.38728 27.4008 2.35879 27.3308 2.34773 27.2571C2.33666 27.1834 2.34333 27.1081 2.36718 27.0375L4.21874 21.5906C2.76205 19.1673 2.15548 16.3272 2.49511 13.5202C2.83473 10.7132 4.10113 8.09977 6.09374 6.09376C8.45946 3.73853 11.6618 2.41626 15 2.41626C18.3382 2.41626 21.5405 3.73853 23.9062 6.09376C25.9916 8.20916 27.2646 10.992 27.5013 13.9531C27.7379 16.9141 26.9232 19.8638 25.2003 22.2836C23.4774 24.7034 20.9566 26.4384 18.0811 27.1835C15.2056 27.9287 12.1594 27.6363 9.47812 26.3578L2.90624 27.6563H2.81249ZM9.53905 25.3828C9.61243 25.3833 9.68468 25.4009 9.74999 25.4344C12.23 26.6714 15.0688 26.9871 17.76 26.3253C20.4512 25.6634 22.8197 24.067 24.4431 21.8209C26.0665 19.5747 26.8391 16.8249 26.6232 14.0619C26.4072 11.299 25.2167 8.70259 23.2641 6.73594C22.1789 5.65055 20.8905 4.78955 19.4726 4.20212C18.0546 3.6147 16.5348 3.31235 15 3.31235C13.4652 3.31235 11.9454 3.6147 10.5274 4.20212C9.10946 4.78955 7.8211 5.65055 6.73593 6.73594C4.86892 8.62251 3.69525 11.0853 3.40588 13.7237C3.1165 16.3621 3.72846 19.0208 5.14218 21.2672C5.1797 21.3266 5.20339 21.3936 5.21151 21.4634C5.21962 21.5332 5.21195 21.6039 5.18905 21.6703L3.5203 26.5875L9.45468 25.4063L9.53905 25.3828Z" fill="#231F20"/>
<path d="M18.3609 21.5626C18.2173 21.5704 18.0733 21.5704 17.9297 21.5626C15.4406 21.2907 12.3047 18.8298 11.4187 17.9626C10.5516 17.0954 8.08594 13.9407 7.81875 11.4516C7.60312 9.46412 8.92969 8.11412 9.51094 7.62194C9.77085 7.39867 10.1062 7.28299 10.4484 7.2985L11.7141 7.34069C11.8066 7.34411 11.8961 7.37488 11.9712 7.42911C12.0462 7.48334 12.1036 7.55859 12.1359 7.64537C12.4172 8.39069 13.3266 10.8704 13.3266 11.5126C13.3266 12.0751 12.8297 12.511 12.3891 12.8954C12.2953 12.9751 12.1687 13.0876 12.0937 13.1672C12.5675 14.0331 13.135 14.8442 13.7859 15.586C14.5278 16.2369 15.3389 16.8043 16.2047 17.2782C16.2844 17.1985 16.3969 17.0719 16.4766 16.9829C16.8609 16.5422 17.2969 16.0454 17.8828 16.0454C18.525 16.0454 21.0047 16.9548 21.75 17.236C21.8368 17.2684 21.912 17.3257 21.9663 17.4008C22.0205 17.4759 22.0513 17.5653 22.0547 17.6579L22.0969 18.9235C22.1065 19.2649 21.9915 19.5981 21.7734 19.861C21.3592 20.372 20.8403 20.7882 20.2517 21.0818C19.663 21.3753 19.0183 21.5392 18.3609 21.5626ZM12.0844 17.2876C12.8578 18.061 15.8344 20.3813 18.0328 20.6204C19.575 20.7844 20.6531 19.7204 21.0469 19.2563C21.1172 19.1689 21.1538 19.0591 21.15 18.9469L21.1172 18.0094C20.0635 17.5869 18.9791 17.2453 17.8734 16.9876C17.7234 16.9876 17.3531 17.4235 17.1937 17.6063C16.875 17.9719 16.6219 18.2579 16.2562 18.2579C15.6609 18.2579 13.5844 16.7204 13.1203 16.2563C12.6562 15.7922 11.1328 13.7016 11.1328 13.1251C11.1328 12.7735 11.4187 12.5204 11.7844 12.1876C11.9625 12.0282 12.3891 11.6626 12.4031 11.5079C12.1453 10.4022 11.8037 9.31786 11.3812 8.26412L10.4437 8.23131C10.3316 8.22755 10.2218 8.26414 10.1344 8.33444C9.66562 8.72819 8.60156 9.80631 8.77031 11.3438C9.00937 13.5563 11.3297 16.5001 12.1031 17.2922L12.0844 17.2876Z" fill="#231F20"/>
</svg>
